<svg xmlns="http://www.w3.org/2000/svg" version="1.1" viewBox="0 0 3000 3000" width="3000" height="3000">
<!--ITEM 1--><g><defs><clipPath id="clip-path-id-viewbox-item-1"><rect x="0.0" y="0.0" width="1549.956" height="739.701"/></clipPath></defs><g transform="translate(652.0 2048.0) rotate(0.0 760.0 363.0) scale(0.9806729997496704 0.9814776511049734)"><g clip-path="url(#clip-path-id-viewbox-item-1)" transform="translate(-0.0 -0.0)"><g>
    <path d="M32.042,110.078S66.785,52.431,184.018,34.154s283.892-41.29,519.268-18.1,436.089,40.339,530.132,74.52,156.225,58.905,161.967,87.279,10.888,67.912-47.516,92.73-130.375,49.059-212.557,51.218-441.852-7.312-560.684-21.661-276.143-41.055-349.983-64.329-165.874-45.8-178.751-70.291S32.042,110.078,32.042,110.078Z" style="         fill: #b1b1b1;       "/>
    <path d="M859.13,247.5s59.4-50.739,113.446-46.385,117.906,30.451,131.715,44.042-29.168,25.066-46.051,26.664-91.067-4.157-126.8-5.28-72.048,8.4-72.18-5.32Z" style="         fill: #ffa400;       "/>
    <path d="M32.042,139.008S10,180.069,8.409,234.23,2.865,340.407,28.8,360.658s159.94,82.676,344.933,112.885S697.513,522.4,783.743,524.708s212.454,4.634,318.9-8.572,176.889-15.765,211.5-35.544,62.171-33.306,68.626-57.514,16.751-67.982,17.726-111.917,1.128-90.538,1.128-90.538,25.235,5.97-37.206,41.571-149.311,61.428-276.094,61.428-303.116-4.641-436.819-16.408-242.493-24.477-334.679-47.938S191.46,239.1,135.112,210.926s-84.522-29.762-89.218-45.4A81.98,81.98,0,0,0,32.042,139.008Z" style="         fill: #626262;       "/>
    <path d="M63.4,85.3c19.542-14.13,42.43-22.358,65.172-29.582C165.651,43.936,204,36.2,242.406,30.245c123.149-19.1,249.255-19.83,373.446-13.359,78.722,4.1,157.321,11.58,235.732,19.58,63.677,6.5,127.292,13.851,190.618,23.2,83.343,12.306,168.827,26.207,247.95,56.224,23.178,8.793,46.051,19.421,66.231,33.962,16.246,11.707,36.812,30.747,37.333,53.363.825,35.743-41.3,58.971-69.368,71.7-29.219,13.255-60.593,21.831-91.893,28.525a465.57,465.57,0,0,1-52.671,8.419c-37.8,3.715-75.881,4.732-113.841,5.2-50.31.623-100.638-.164-150.927-1.694-111.491-3.391-222.975-10.265-333.972-21.353-48.764-4.871-97.478-10.559-145.9-18.122-55.8-8.715-110.929-21.14-165.639-35.087-58.98-15.035-119.481-31.357-174.168-58.665-17.027-8.5-34.478-18.267-47.641-32.274-4.243-4.515-8.357-10.233-10.291-15.535a26.367,26.367,0,0,1-1.2-15.5C39.542,104.782,51.937,93.7,63.4,85.3c6.956-5.1.206-16.862-6.837-11.7C42.846,83.663,28.818,96.132,23.742,112.989c-4.09,13.579-.211,27.54,7.978,38.741,10.951,14.977,27.048,25.782,43,34.805,22.892,12.945,47.512,22.881,72.209,31.793,68.979,24.894,140.834,41.929,212.417,57.4,43.581,9.421,87.744,15.982,131.95,21.664,111.215,14.3,223.267,22.609,335.24,28.02,100.609,4.862,201.8,8.053,302.48,3.463,36.871-1.681,73.228-5.019,109.34-12.872,31.731-6.9,63.2-15.954,92.825-29.394,20.121-9.127,40.214-20.667,55.536-36.857,11.054-11.68,19.371-26.083,20.451-42.394,1.032-15.585-5.52-30.357-14.974-42.391-13.685-17.42-32.608-30.577-51.875-41.125-26.514-14.515-55.25-24.956-84.1-33.736C1216.431,78,1175.7,69.08,1134.846,61.4,1007.583,37.475,878.188,24.6,749.3,13.229,605.862.572,461.516-6.049,317.864,7.445c-47.837,4.494-95.642,11.071-142.528,21.7C143.75,36.313,112.119,45.165,82.65,58.8A156.231,156.231,0,0,0,56.563,73.6C49.565,78.66,56.318,90.416,63.4,85.3Z" fill="#000000"/>
    <path d="M22.264,122.256C5.918,174.837-.33,230.784.013,285.67c.125,19.813,1.5,40.122,9.714,58.425,8.319,18.532,23.965,32.183,41.136,42.4,24.68,14.685,52.43,23.888,79.634,32.633q33.673,10.826,67.794,20.192c58.663,16.236,118.042,29.874,177.771,41.571q111.211,21.78,223.915,34.746c83.464,9.753,167.441,16.807,251.5,17.981a2265.7,2265.7,0,0,0,241.867-9.821c63.468-5.918,127.131-13.87,189.46-27.461,27.065-5.9,52.758-14.87,73.921-33.4,19.676-17.23,32.611-40.719,40.064-65.559,9.877-32.92,10.072-67.594,10.927-101.654.663-26.415.966-52.856.454-79.277-.066-3.405-.135-6.811-.264-10.213-.331-8.689-13.877-8.732-13.545,0,.5,13.252.519,26.534.5,39.794-.052,34.584.144,69.658-2.987,104.114-2.472,27.195-8.9,54.863-23.5,78.252-13.893,22.256-35.173,38.332-59.8,47.078-24.563,8.723-51.42,12.6-77.033,16.992-31.778,5.446-63.737,9.8-95.771,13.42-75.72,8.564-151.925,13.259-228.119,14.219-158.883,2-318.48-14.925-474.848-42.4-62.207-10.931-124.08-23.893-185.317-39.378-48.424-12.244-97.09-25.418-144.018-42.641-23.38-8.581-48.515-18.772-66.646-36.467-12.766-12.459-19.327-28.4-21.7-45.909-3.16-23.325-1.879-47.908-.475-71.315a530.3,530.3,0,0,1,16.428-100.85c1.324-5.116,2.684-10.233,4.253-15.28,2.593-8.343-10.478-11.911-13.062-3.6Z" fill="#000000"/>
    <path d="M857.456,267.267q25.675,4.9,51.68,7.817,25.443,2.873,51.057,3.774,25.466.9,50.95-.154,25.458-1.053,50.787-4.054,25.957-3.078,51.636-8.095,3.171-.626,6.335-1.282c3.475-.719,5.806-5.006,4.73-8.331a6.936,6.936,0,0,0-8.331-4.73q-12.416,2.571-24.921,4.669-6.252,1.047-12.523,1.973-3.073.454-6.152.88l-1.478.2c-1.335.182,1.165-.153-.171.023q-1.725.227-3.451.449-25.029,3.188-50.253,4.465-25.325,1.284-50.7.637-25.349-.648-50.6-3.227-6.306-.644-12.6-1.41-3.084-.375-6.165-.78l-1.479-.195.569.076c-.245-.042-.493-.067-.739-.1q-1.724-.235-3.447-.48-12.552-1.782-25.029-4.048-3.058-.555-6.11-1.139c-3.468-.663-7.474.968-8.331,4.73-.761,3.341,1.009,7.62,4.73,8.331Z" fill="#000000"/>
    <path d="M856.755,261.708c.587-.962,1.193-1.912,1.828-2.843q.476-.695.968-1.377c.163-.227.329-.453.5-.678.143-.193.908-1.193.231-.317-.7.905.5-.619.645-.792q.531-.648,1.077-1.283,1.161-1.349,2.39-2.638c1.591-1.671,3.262-3.266,5-4.79q1.187-1.043,2.411-2.041c.436-.356.878-.705,1.318-1.056.894-.712-.257.206-.368.283.347-.239.677-.514,1.015-.765a137.166,137.166,0,0,1,24.168-13.987q3.36-1.561,6.77-3.016c.291-.125.63-.233.9-.385-.166.092-1.393.58-.26.11.605-.251,1.21-.5,1.817-.751q1.82-.746,3.651-1.464,7.557-2.966,15.289-5.461a236.844,236.844,0,0,1,31.455-7.848c2.576-.454,5.161-.853,7.751-1.223,1.234-.176-.159.029-.344.044.323-.027.65-.085.972-.126q.972-.123,1.946-.238,2.067-.245,4.139-.447,8.039-.785,16.121-.924,7.956-.129,15.9.414c2.544.176,5.088.395,7.622.7.286.034,1.877.247.607.071-1.312-.182.558.082.8.118q1.624.242,3.242.526a154.051,154.051,0,0,1,25.833,7.042q3.18,1.155,6.315,2.425.787.319,1.574.646c.257.107.522.237.787.329-1.607-.56-.818-.346-.44-.182,1.113.48,2.225.965,3.33,1.463q6.476,2.916,12.734,6.283a199.669,199.669,0,0,1,23.656,14.9q1.347.988,2.677,2c.22.168.438.34.66.506-.1-.076-1.278-1-.387-.3.487.384.976.766,1.46,1.153q2.636,2.1,5.186,4.31c3.289,2.847,6.463,5.827,9.486,8.954q2.115,2.187,4.122,4.472c2.348,2.668,7.211,2.577,9.577,0a6.934,6.934,0,0,0,0-9.578c-12.331-14.015-27.669-25.525-43.769-34.862-16.572-9.611-34.669-17.329-53.412-21.478-20.978-4.644-42.823-4.239-64-1.289-22.3,3.106-43.881,9.77-64.519,18.678-18.255,7.88-35.955,18.092-48.2,34.133a66.824,66.824,0,0,0-3.924,5.735,6.774,6.774,0,0,0,11.7,6.837Z" fill="#000000"/>
    <path d="M1376.245,424.879c3.93,11.709,13.463,20.04,24.411,25.18,11.319,5.315,23.591,8.059,35.932,9.7a155.323,155.323,0,0,0,72.752-7.972,151,151,0,0,0,37.276-19.533,7.336,7.336,0,0,0,3.112-4.047,6.923,6.923,0,0,0-.683-5.219c-1.828-2.835-6.2-4.653-9.266-2.429a142.464,142.464,0,0,1-15.031,9.529q-3.723,2.045-7.562,3.868-2.01.954-4.048,1.848c-.424.185-2.677,1.034-.614.274-.757.279-1.5.62-2.247.919a150.862,150.862,0,0,1-33.937,9.135c-.48.071-2.917.317-.606.094-.671.065-1.34.171-2.009.25q-2.313.273-4.633.474-4.335.375-8.688.5a147.909,147.909,0,0,1-17.787-.555q-2.013-.185-4.022-.426c-.528-.063-2.855-.445-.607-.067-.8-.134-1.6-.227-2.4-.35q-4.4-.678-8.75-1.63a111.233,111.233,0,0,1-15.883-4.588c-.686-.261-1.36-.568-2.05-.815,1.957.7.7.3.263.106q-.59-.258-1.174-.527-2.08-.956-4.091-2.056-1.906-1.05-3.726-2.246-.9-.592-1.77-1.226c-.241-.175-.478-.355-.716-.532q-.62-.471.667.514-.279-.221-.553-.445a38.487,38.487,0,0,1-3.116-2.845q-.73-.747-1.416-1.538c-.228-.263-.445-.534-.669-.8-.853-1,.97,1.349.209.275a34.1,34.1,0,0,1-2.237-3.51c-.333-.616-.629-1.248-.928-1.881-.574-1.214.594,1.583.14.314-.161-.447-.329-.891-.48-1.342-1.125-3.352-4.717-5.9-8.331-4.73-3.334,1.079-5.938,4.735-4.73,8.331Z" fill="#000000"/>
    <path d="M1341.988,460.813a246.242,246.242,0,0,0-.265,40.115c.873,12.958,2.66,25.839,7.481,37.972a113.326,113.326,0,0,0,51.144,57.607,107.465,107.465,0,0,0,37.948,12.2q2.3.289,4.605.463c3.541.272,6.928-3.31,6.773-6.773a6.94,6.94,0,0,0-6.773-6.772c-1.539-.119-3.072-.278-4.605-.463-1.191-.144,1.578.227.391.053-.351-.052-.7-.1-1.054-.156q-1.14-.175-2.277-.379-4.449-.8-8.81-2.017-4.437-1.239-8.745-2.891-.993-.38-1.978-.782a3.84,3.84,0,0,1-.983-.406c-.074-.066,1.459.627.8.336-.216-.1-.434-.188-.651-.283q-2.112-.926-4.181-1.945a106.189,106.189,0,0,1-15.49-9.368c-.624-.454-1.241-.916-1.857-1.38-.932-.7,1.161.911.244.19q-.491-.385-.978-.773-1.806-1.446-3.551-2.967-3.422-2.984-6.585-6.245t-6.037-6.769q-.677-.826-1.335-1.664a2.8,2.8,0,0,1-.329-.42c-.044-.09.949,1.241.516.667-.285-.379-.573-.755-.856-1.135q-1.324-1.782-2.575-3.618a101.911,101.911,0,0,1-8.884-15.931c-.143-.324-.286-.649-.426-.974a1.826,1.826,0,0,1-.209-.489,7.806,7.806,0,0,1,.34.8c-.287-.712-.58-1.422-.857-2.138q-.831-2.149-1.558-4.336-1.428-4.3-2.438-8.715c-.648-2.845-1.136-5.718-1.55-8.605-.168-1.17.207,1.61.056.424-.052-.409-.105-.819-.155-1.229q-.143-1.167-.269-2.338-.264-2.43-.466-4.867a259.886,259.886,0,0,1-.384-39.714q.149-2.144.356-4.282c.341-3.537-3.359-6.925-6.773-6.773-3.961.178-6.406,2.984-6.772,6.773Z" fill="#000000"/>
    <path d="M586.884,510.57a308.464,308.464,0,0,0,6.163,59.515,265.718,265.718,0,0,0,18.475,56.875,229.053,229.053,0,0,0,29.018,47.349A213.624,213.624,0,0,0,678.3,711.273a190.81,190.81,0,0,0,45.833,25.874q3,1.185,6.034,2.258c3.344,1.184,7.558-1.34,8.331-4.73a6.943,6.943,0,0,0-4.731-8.331q-3.036-1.076-6.034-2.258-1.359-.539-2.711-1.1c-.24-.1-.478-.2-.72-.3,1.725.687.923.39.541.225-.6-.257-1.193-.514-1.787-.777q-5.7-2.517-11.218-5.429a188.038,188.038,0,0,1-21.527-13.3q-2.618-1.87-5.175-3.827c-1.289-.987,1.107.866-.173-.134q-.615-.482-1.227-.966-1.3-1.032-2.582-2.085-4.908-4.031-9.556-8.364a209.791,209.791,0,0,1-17.511-18.441Q652,667.113,650,664.578q-.426-.538-.847-1.079c-1-1.282.849,1.113-.139-.179q-1.012-1.322-2-2.659-3.79-5.11-7.275-10.439a223.749,223.749,0,0,1-13.487-23.708q-1.609-3.272-3.118-6.592-.686-1.507-1.349-3.026-.356-.81-.7-1.622c-.116-.27-.231-.542-.347-.813-.335-.782.561,1.346.083.193q-2.749-6.636-5.14-13.409a263.492,263.492,0,0,1-8.052-27.832q-1.6-6.91-2.843-13.9-.644-3.6-1.194-7.221-.267-1.755-.512-3.513c-.031-.22-.061-.44-.092-.659-.165-1.189.047.341.064.481-.087-.735-.192-1.467-.284-2.2q-1.791-14.308-2.2-28.744-.1-3.544-.127-7.089c-.026-3.542-3.1-6.937-6.772-6.773a6.888,6.888,0,0,0-6.773,6.773Z" fill="#000000"/>
    <path d="M532.8,509.1q-.174,5.646-.7,11.273-.26,2.758-.606,5.508c-.033.267-.225,1.716-.071.579.16-1.188-.08.559-.113.789q-.2,1.371-.416,2.739a181.612,181.612,0,0,1-4.881,21.827q-1.567,5.427-3.471,10.75-.931,2.608-1.943,5.19-.505,1.29-1.031,2.572c-.161.395-.325.788-.488,1.182-.078.186-.373.892.01-.023.448-1.069-.109.248-.161.368a181.416,181.416,0,0,1-10.1,19.953,193.1,193.1,0,0,1-12.49,18.523c-.033.044.9-1.155.443-.576-.124.157-.247.316-.371.475q-.435.552-.874,1.1-.815,1.022-1.645,2.03-1.659,2.018-3.379,3.985-3.5,4.01-7.243,7.805a181.123,181.123,0,0,1-15.648,14.138q-1.018.819-2.049,1.622c-.158.124-.318.245-.476.37-.043.034,1.164-.89.575-.446-.428.323-.852.65-1.281.972q-2.088,1.571-4.22,3.082-4.265,3.02-8.7,5.794A181.969,181.969,0,0,1,432.8,660.9q-2.361,1.118-4.754,2.167-.552.241-1.106.48c-.434.187-1.93.781-.046.024-.808.325-1.609.667-2.417.991q-4.942,1.985-10,3.67-2.478.826-4.981,1.579c-3.388,1.023-5.876,4.791-4.73,8.331,1.107,3.422,4.7,5.827,8.331,4.73a188.2,188.2,0,0,0,40.57-17.689,190.484,190.484,0,0,0,35.459-26.792,185.065,185.065,0,0,0,28.519-35.019,188.759,188.759,0,0,0,28.434-88.53q.18-2.873.265-5.749a6.829,6.829,0,0,0-6.772-6.773A6.91,6.91,0,0,0,532.8,509.1Z" fill="#000000"/>
  </g>
</g></g></g><!--ITEM 2--><g><defs><clipPath id="clip-path-id-viewbox-item-2"><rect x="0.0" y="0.0" width="240.25" height="157.937"/></clipPath></defs><g transform="translate(1666.0 488.0) rotate(0.0 112.0 73.0) scale(0.9323621227887617 0.9244192304526487)"><g clip-path="url(#clip-path-id-viewbox-item-2)" transform="translate(-0.0 -0.0)"><g>
    <path d="M.142,8.577C2.788,28,17.661,43.87,34.671,52.4a78.785,78.785,0,0,0,28.586,8.208,61.051,61.051,0,0,0,26.477-3.355c9.811-3.716,18.812-10.337,23.042-20.231L100.156,33.6c-1.74,14.824-3.278,29.839-.075,44.592,2.5,11.533,8.5,23.243,17.832,30.714a41.625,41.625,0,0,0,18.234,8.726,56.689,56.689,0,0,0,21.942-.46,104.112,104.112,0,0,0,20.214-6.74c6.294-2.691,12.449-5.737,18.514-8.907A329.626,329.626,0,0,0,236.91,76.761a7.316,7.316,0,0,0,3.112-4.047,6.922,6.922,0,0,0-.682-5.219c-1.833-2.842-6.193-4.645-9.266-2.429a329.99,329.99,0,0,1-34.183,21.6q-8.815,4.839-17.919,9.131c-1.418.669-2.841,1.329-4.273,1.967-.542.241-1.652,1-2.233.974.657.035,1.145-.474.388-.164-.55.226-1.1.454-1.651.675-3.042,1.22-6.132,2.326-9.276,3.254a71.879,71.879,0,0,1-9.024,2.078c-.591.094-1.729-.056.078.006a9.938,9.938,0,0,0-1.291.151q-1.072.112-2.148.182a46.915,46.915,0,0,1-4.7.066q-1.167-.045-2.33-.154a5.6,5.6,0,0,0-1.054-.113l.961.131q-.42-.06-.838-.129a36.273,36.273,0,0,1-4.552-1.056q-1.026-.309-2.034-.683c-.19-.07-1.032-.531-1.208-.474.448-.145,1.306.571.312.109a33.247,33.247,0,0,1-3.71-2.018q-.772-.486-1.52-1.013a8.3,8.3,0,0,1-.885-.644c.047.044,1.342,1.08.506.388-1.081-.9-2.132-1.811-3.125-2.805q-1.362-1.363-2.589-2.852c-.233-.281-.446-.594-.694-.861.055.059,1.019,1.371.387.49-.432-.6-.869-1.2-1.282-1.814a49.976,49.976,0,0,1-3.982-7.166c-.155-.34-.288-.695-.455-1.028.815,1.63.413,1,.249.579-.273-.7-.549-1.395-.8-2.1q-.7-1.939-1.249-3.924-.613-2.2-1.052-4.452-.276-1.41-.494-2.831l-.071-.473q-.16-1.137.048.379a7.45,7.45,0,0,1-.167-1.424,94.681,94.681,0,0,1-.481-11.943c.146-7.868,1.054-15.694,1.97-23.5a6.186,6.186,0,0,0-1.454-4.1,6.464,6.464,0,0,0-3.518-2.427,8.077,8.077,0,0,0-3.6,0,6.7,6.7,0,0,0-4.047,3.113A28.851,28.851,0,0,1,98.3,35.257c-.334.481-1.62,1.872-.07.148-.279.311-.529.65-.8.966a29.643,29.643,0,0,1-2.065,2.145c-.65.611-1.352,1.155-2.021,1.744,1.686-1.486.469-.363-.017-.017q-.646.459-1.313.888a41.688,41.688,0,0,1-5.082,2.746c-.457.212-1.351.514.573-.23-.2.079-.4.167-.605.247q-.609.245-1.224.469-1.475.54-2.983.98a52.44,52.44,0,0,1-6.041,1.379c-.445.075-.89.142-1.336.209-1.076.161.78-.1.793-.107a6.052,6.052,0,0,1-.841.1q-1.6.177-3.215.269-3.048.172-6.1.041-1.431-.06-2.857-.187-.75-.067-1.5-.152l-.663-.078c-1.309-.156,1.783.27.484.062-2.092-.334-4.169-.723-6.227-1.228q-3.165-.774-6.25-1.834-1.547-.53-3.069-1.129c-.451-.177-.895-.376-1.348-.546,2.091.785.143.052-.385-.187a70.748,70.748,0,0,1-11.34-6.432q-.738-.516-1.462-1.051c-.424-.314-1.709-1.376-.059-.029-.878-.717-1.765-1.42-2.619-2.166a59.752,59.752,0,0,1-4.583-4.448q-1.194-1.293-2.306-2.658c-.182-.224-.388-.445-.548-.685l.63.817q-.213-.278-.422-.559-.522-.7-1.02-1.418a48.879,48.879,0,0,1-3.553-5.975q-.389-.777-.749-1.567c-.1-.211-.187-.423-.283-.634-.529-1.172.583,1.454.146.335-.423-1.082-.822-2.172-1.168-3.281a44.328,44.328,0,0,1-1.6-7.228A6.748,6.748,0,0,0,10.09.929,6.915,6.915,0,0,0,4.872.246,6.854,6.854,0,0,0,.824,3.359,8,8,0,0,0,.142,8.577Z" fill="#000000"/>
    <path d="M219.767,74.531a179.71,179.71,0,0,0-8.6,17.529,133.568,133.568,0,0,0-6.888,19.262,51.55,51.55,0,0,0-1.138,22.045,33.228,33.228,0,0,0,7.707,15.516,26.349,26.349,0,0,0,17.911,9.038c3.54.29,6.927-3.323,6.772-6.773-.175-3.918-2.98-6.461-6.772-6.772-.242-.02-1.442-.164-.148.009s.108,0-.131-.048q-.764-.153-1.509-.375c-.5-.148-.972-.345-1.463-.5,2.125.692.2.061-.405-.265q-.683-.371-1.334-.794c-.193-.126-.385-.255-.574-.387-.5-.348-1.047-1.1.258.225-.778-.79-1.675-1.453-2.436-2.272-.363-.39-.7-.8-1.047-1.2-.841-.978.805,1.114.3.386-.17-.244-.349-.482-.517-.727a26.82,26.82,0,0,1-1.819-3.084c-.214-.426-.379-.885-.611-1.3,1.071,1.919.106.212-.1-.383a26.043,26.043,0,0,1-.929-3.43c-.061-.3-.106-.613-.168-.917-.311-1.536.109,1.2.015.19-.065-.693-.14-1.382-.18-2.076a38.593,38.593,0,0,1,.028-4.626c.049-.774.133-1.542.209-2.314.046-.459.326-1.116-.06.415.074-.292.094-.623.144-.923.253-1.543.575-3.075.948-4.594a118.456,118.456,0,0,1,5.87-17.028c.167-.4.684-1.4-.052.117.2-.416.368-.858.552-1.281q.465-1.067.943-2.126,1.053-2.331,2.173-4.631,2.241-4.6,4.746-9.063c1.731-3.091.845-7.536-2.429-9.266a6.887,6.887,0,0,0-9.266,2.43Z" fill="#000000"/>
  </g>
</g></g></g><!--ITEM 3--><g><defs><clipPath id="clip-path-id-viewbox-item-3"><rect x="0.0" y="0.0" width="323.564" height="263.881"/></clipPath></defs><g transform="translate(744.0 534.0) rotate(0.0 161.0 131.0) scale(0.995166334944555 0.9928717869039454)"><g clip-path="url(#clip-path-id-viewbox-item-3)" transform="translate(-0.0 -0.0)"><path d="M12.639,260.579q1.992-2.931,4.08-5.793.966-1.318,1.953-2.623c.341-.45.979-1.286.267-.36.332-.432.669-.86,1.007-1.288q4.3-5.457,8.98-10.6A199.489,199.489,0,0,1,48.8,220.9H39.218c10.594,10.651,23.23,22.008,39.156,22.22,15.473.205,27.3-10.644,35.918-22.344A190.471,190.471,0,0,0,125.8,202.457q5.976-10.407,11.311-21.167A411.1,411.1,0,0,0,156.283,136,396.407,396.407,0,0,0,170.709,84.43H157.647c2.506,13.239,13.122,22.627,25.128,27.483,12.6,5.094,26.776,4.2,39.223-.85,14.567-5.905,26.731-15.849,38.3-26.289a408.524,408.524,0,0,0,32.263-32.046c11.557-13.041,22.038-27.166,30.162-42.614,1.648-3.133.9-7.505-2.43-9.266-3.125-1.651-7.5-.918-9.266,2.43a183.983,183.983,0,0,1-11.3,18.658c-2.062,3-4.221,5.919-6.417,8.819-.654.863.988-1.261-.081.1l-.657.839q-.825,1.047-1.66,2.084-1.841,2.285-3.735,4.524a358.37,358.37,0,0,1-30.146,31.118c-5.286,4.905-10.622,9.775-16.2,14.348q-1.016.834-2.044,1.652c-.274.218-.551.433-.825.652-1.391,1.109,1.128-.847-.29.226-1.393,1.053-2.8,2.091-4.226,3.093A96.708,96.708,0,0,1,224.2,95.16q-2.147,1.167-4.363,2.2c-.388.18-.78.35-1.169.529-1.525.7.956-.368-.032.019-.874.343-1.744.694-2.627,1.012a59.6,59.6,0,0,1-10.134,2.649c-.573.1-1.38-.034.4-.041-.257,0-.545.065-.805.092q-1.012.106-2.027.16a42.713,42.713,0,0,1-4.5,0q-1.025-.053-2.048-.153c-.272-.027-.545-.061-.817-.088-1.5-.15,1.651.28.169.021-1.354-.237-2.7-.48-4.032-.813a44.284,44.284,0,0,1-4.7-1.454c-.255-.094-.509-.192-.762-.291s-.5-.2-.756-.306l.87.364a12.823,12.823,0,0,0-2.2-1.04,39.246,39.246,0,0,1-3.977-2.33c-.592-.4-1.157-.918-1.777-1.266,1.556.873.575.443.136.078q-.452-.377-.892-.769a31.906,31.906,0,0,1-3-3.056,9.7,9.7,0,0,0-.737-.9c.559.5.778,1.045.133.134q-.669-.945-1.259-1.942-.49-.831-.923-1.7a7.959,7.959,0,0,0-.5-1.051c.86,1.2.361.894.091.178a27.375,27.375,0,0,1-1.265-4.575c-1.235-6.527-11.729-6.4-13.062,0a395.861,395.861,0,0,1-12.064,44.708q-3.624,10.854-7.871,21.488-1.036,2.592-2.107,5.17-.215.514-.431,1.03c-.721,1.731.552-1.284-.186.439q-.659,1.541-1.325,3.076-2.231,5.118-4.6,10.171A366.74,366.74,0,0,1,107.2,207.171c-1.671,2.639-3.444,5.2-5.305,7.71-.973,1.312.93-1.155-.093.117-.2.244-.391.49-.588.733q-.739.909-1.506,1.8c-1.113,1.285-2.275,2.531-3.493,3.718-1.089,1.063-2.234,2.054-3.4,3.031-.947.794.264-.148.308-.228-.152.275-.825.61-1.084.792q-1,.7-2.04,1.339-.939.573-1.915,1.084-.486.253-.98.491l-.4.186q-.8.356.008.011l.407-.17q-.405.166-.814.319c-.274.1-.548.2-.824.294q-1.248.423-2.532.725c-.43.1-.864.192-1.3.271-.567.1-1.754-.042.032.019-.927-.032-1.89.161-2.823.166q-1.328.006-2.65-.12l-.238-.023q-1.141-.132.38.057c-.284.119-1.069-.187-1.4-.257-1.671-.349-4.015-.726-5.456-1.683,1.131.752.715.317.293.114-.509-.245-1.022-.477-1.526-.732q-1.2-.6-2.357-1.282a55.731,55.731,0,0,1-4.965-3.286c-.257-.19-.564-.385-.8-.6,1.338,1.205-.341-.282-.612-.5q-1.082-.88-2.134-1.795c-2.984-2.585-5.807-5.346-8.59-8.144-2.75-2.764-6.769-2.341-9.578,0A205.681,205.681,0,0,0,.944,253.742c-2,2.938-.654,7.637,2.429,9.266a6.938,6.938,0,0,0,9.266-2.429Z" fill="#000000"/>
</g></g></g><!--ITEM 4--><g><defs><clipPath id="clip-path-id-viewbox-item-4"><rect x="0.0" y="0.0" width="557.546" height="154.767"/></clipPath></defs><g transform="translate(1000.0 2754.0) rotate(0.0 276.0 76.0) scale(0.990052838689543 0.982121511691769)"><g clip-path="url(#clip-path-id-viewbox-item-4)" transform="translate(-0.0 -0.0)"><g>
    <path d="M545.985,3.085a192.959,192.959,0,0,1-19.606,20.791q-5.265,4.816-10.859,9.255-.745.591-1.5,1.177c-.955.749,1.027-.783-.325.249q-1.419,1.084-2.856,2.144-2.876,2.121-5.82,4.147A234.714,234.714,0,0,1,480.237,55.71q-6.386,3.322-12.954,6.276-1.533.692-3.076,1.362-.771.334-1.545.666c-.294.126-.588.256-.885.376.73-.3.891-.374.066-.031q-3.33,1.385-6.7,2.681a300.638,300.638,0,0,1-57.814,15.628q-4.418.748-8.855,1.385-1,.144-2,.282c-.286.04-.572.082-.859.118,1.417-.176.375-.05.082-.013-1.529.2-3.058.391-4.588.572q-8.611,1.02-17.261,1.663c-11.548.866-23.129,1.259-34.709,1.28-23.235.043-46.448-1.4-69.574-3.562q-4.332-.4-8.659-.84c-3.536-.355-6.925,3.368-6.773,6.772.178,3.973,2.985,6.392,6.773,6.773,23.4,2.349,46.879,4.075,70.4,4.361a457.106,457.106,0,0,0,71.342-4.427,309.947,309.947,0,0,0,60.007-14.668A261.45,261.45,0,0,0,506.1,56.377a211.831,211.831,0,0,0,44.843-38.228q2.362-2.7,4.618-5.486a7.316,7.316,0,0,0,1.983-4.789,6.892,6.892,0,0,0-1.983-4.789c-2.473-2.269-7.195-2.938-9.578,0Z" fill="#000000"/>
    <path d="M147.3,134.818q23.845,6.768,48.263,11.232c16.693,3.047,33.544,5.3,50.45,6.768q24.578,2.127,49.284,1.932,24.786-.2,49.479-2.742c16.88-1.745,33.691-4.259,50.329-7.6q2.994-.6,5.982-1.239a6.821,6.821,0,0,0,4.73-8.331,6.932,6.932,0,0,0-8.331-4.73q-12.064,2.57-24.241,4.566-6.029.986-12.079,1.828-.7.1-1.4.192c-.233.032-.466.062-.7.095-.009,0,1.416-.187.637-.086q-1.632.213-3.262.423-3.03.382-6.065.73-24.393,2.788-48.976,3.268-24.665.484-49.3-1.357-12.184-.911-24.316-2.39c-2.021-.247-4.039-.518-6.059-.775-.01,0,1.415.193.637.084l-.932-.127-1.4-.2q-1.512-.213-3.023-.435-6.159-.9-12.3-1.955-24.2-4.146-47.93-10.579-2.947-.8-5.886-1.635c-3.406-.967-7.523,1.183-8.331,4.73a6.9,6.9,0,0,0,4.731,8.331Z" fill="#000000"/>
    <path d="M3.3,12.643a389.95,389.95,0,0,0,61.948,34.7,401.886,401.886,0,0,0,68.395,23.514,388.225,388.225,0,0,0,39.1,7.433,7.469,7.469,0,0,0,5.219-.683,6.772,6.772,0,0,0,2.429-9.266c-.882-1.368-2.353-2.879-4.047-3.112a389.877,389.877,0,0,1-68.957-15.986Q99.078,46.5,90.894,43.39q-4.091-1.554-8.145-3.2c-1.352-.548-2.7-1.107-4.045-1.667-1.1-.458.312.094.407.173a5.557,5.557,0,0,0-1.208-.513q-1.107-.472-2.21-.951-16.157-7.011-31.64-15.454A388.663,388.663,0,0,1,10.14.948C7.212-1.064,2.5.305.874,3.377A6.941,6.941,0,0,0,3.3,12.643Z" fill="#000000"/>
  </g>
</g></g></g><!--ITEM 5--><g><defs><clipPath id="clip-path-id-viewbox-item-5"><rect x="0.0" y="0.0" width="394.558" height="114.17"/></clipPath></defs><g transform="translate(1952.0 2624.0) rotate(0.0 197.0 57.0) scale(0.9985857592546596 0.9985109923797845)"><g clip-path="url(#clip-path-id-viewbox-item-5)" transform="translate(-0.0 -0.0)"><g>
    <path d="M4.922,84.236A287.116,287.116,0,0,0,58.014,94.777a290.818,290.818,0,0,0,52.732.677,307.113,307.113,0,0,0,53.448-8.892,301.745,301.745,0,0,0,50.894-18.314A278.827,278.827,0,0,0,260.631,41.7q2.661-1.914,5.275-3.892a7.421,7.421,0,0,0,3.112-4.047,6.922,6.922,0,0,0-.683-5.219c-1.795-2.785-6.243-4.714-9.266-2.43a277.678,277.678,0,0,1-44.542,27.44q-5.871,2.9-11.872,5.522c-.938.41-1.878.813-2.819,1.216-.811.347,1.3-.545.487-.2l-.755.316q-.851.354-1.7.7-3.03,1.24-6.089,2.412-12.236,4.688-24.859,8.267-12.512,3.551-25.3,5.993-6.438,1.23-12.927,2.174-.81.119-1.622.232l-.811.112c-.763.108.855-.113.785-.1-1.151.147-2.3.3-3.454.441q-3.254.4-6.514.719a291.989,291.989,0,0,1-52.333.506q-6.423-.519-12.819-1.328c-.541-.069-1.082-.152-1.624-.211,2.134.231.3.04-.226-.034q-1.621-.227-3.239-.472-3.237-.492-6.461-1.058Q27.468,76.483,14.82,73q-3.161-.873-6.3-1.822a6.839,6.839,0,0,0-8.331,4.73,6.912,6.912,0,0,0,4.73,8.331Z" fill="#000000"/>
    <path d="M237.438,114.017A221.2,221.2,0,0,0,308.35,90.073,228.121,228.121,0,0,0,367.624,44.33a221.189,221.189,0,0,0,26.029-34.2A6.84,6.84,0,0,0,391.224.864a6.909,6.909,0,0,0-9.266,2.429q-4.82,7.82-10.3,15.2-.685.921-1.381,1.834c-.231.3-.469.6-.7.911,1.218-1.643.39-.506.121-.162q-1.413,1.807-2.865,3.585-2.9,3.553-5.957,6.981a219.591,219.591,0,0,1-26.317,25.005q-.894.72-1.8,1.431c-.3.236-.6.471-.9.708-1.113.874,1.284-.981.16-.122-1.217.929-2.438,1.853-3.671,2.761q-3.7,2.723-7.507,5.292-7.458,5.031-15.3,9.451-8,4.507-16.358,8.344-2,.916-4.017,1.8c-.643.279-1.292.547-1.934.83,1.911-.841.619-.262.207-.091q-.707.292-1.415.582-4.251,1.731-8.572,3.282a212.1,212.1,0,0,1-39.612,10.048,6.769,6.769,0,0,0-4.047,3.113,6.772,6.772,0,0,0,2.429,9.266,7.863,7.863,0,0,0,5.219.683Z" fill="#000000"/>
  </g>
</g></g></g><!--ITEM 6--><g><defs><clipPath id="clip-path-id-viewbox-item-6"><rect x="0.0" y="0.0" width="2013.652" height="2238.176"/></clipPath></defs><g transform="translate(598.0 58.0) rotate(0.0 986.0 1097.0) scale(0.9793151944824627 0.9802624994638491)"><g clip-path="url(#clip-path-id-viewbox-item-6)" transform="translate(-0.0 -0.0)"><g>
    <path d="M6.886,1138.78s39,51.316,65.81,71.979L99.5,1231.423l57.424-133.395s99.2-201.452,167.833-272.765S521.715,626.622,636.744,592.328s222.447-56.576,347.941-20.608S1240.851,701.145,1275,734.608s106.9,124.769,124.124,167.367,34.118-30.906,39.539-40.894S1566.4,619.237,1566.4,619.237s110.067-232.506,124.61-261.654,101.7-194.089,125.6-229.748,47.884-86.177,93.086-103.127,77.16-25.8,86.52-5.125,24.777,64.292-19.449,139.855-147.685,211.449-182.632,263.27S1649.562,641.3,1618.381,688.79s-113.407,171.483-138.315,211.962-50.887,84.689-50.887,84.689,23.269,92.131,26.661,165.646,9,201.337-7.551,286.079-50.913,219.63-102.907,340.361-80.594,181.234-136.081,271.137-96.616,134.4-108.37,142.292-33.989-.8-17.236-40.3,56.147-128.859,74.6-174.639,39.117-94.042,48.459-174.562-3.122-203.465-3.122-203.465-5.115,81.32-19.533,138.555-45.327,175.206-88.422,248.1-98.756,165.565-130.319,188.6-43.535,7.283-26.332-33.719,51.072-104.5,79.036-188.3,72.862-199.356,71.441-302.757-2.147-195.084-32.231-266.212,1.372-62.8-66.959-81.487-205-17.86-237.579,14.072S635.73,1412.448,594.086,1536.77c-31.113,92.884-28.866,124.589-19.03,159.076s52.107,186.507,76.479,244.88,79.039,190.431,86.9,204.076,27.59,61.468,16.086,69.4-29.081,4.549-68.78-57.915-69.552-97.84-106.668-168.552-72.955-130.906-88.41-161.51c-12.625-25-47.015-50.442-47.015-50.442s-30.085-36.228-58.323-32.44c-36.618,4.912-40.581,22.591-40.581,22.591s-11.94,55.013,14.308,105c58.8,112,121.742,207.638,149.358,242.6s75.052,100.664,51.574,117.927c-19.013,13.98-182.023-163.776-182.023-163.776s-98.176-118.141-129.594-177.407-75.445-145.555-101.91-223.663-50.382-100.362-50.382-100.362-35.022-37.459-51.765-101.361-27.858-140.922-30.508-176.054S6.886,1138.78,6.886,1138.78Z" style="         fill: #fff;       "/>
    <path d="M285.3,1546.687c-6.941,4.91-10.091,13.774-10.582,22.262a23.272,23.272,0,0,0,1.028,9.31c2.691,7.407,11,11.7,18.885,11.594,15.982-.218,39.867-17.1,35.244-35.476C325.509,1537.016,297.09,1538.349,285.3,1546.687Z" style="         fill: #ffa400;       "/>
    <path d="M360.134,1585.232c10.514,2.547,23.21,3.7,30.623-4.177a20.838,20.838,0,0,0,4.7-8.772c3.246-11.737-2.372-25.332-12.956-31.354C347.869,1521.22,318.708,1575.2,360.134,1585.232Z" style="         fill: #ffa400;       "/>
    <path d="M413.928,1363.769c29.8-16.372,70.773-8.423,92.288,17.9s21.144,68.064-.836,94.005c-21.069,24.867-56.291,33-88.872,32.125-14.436-.388-29.416-2.457-41.462-10.424-25.677-16.984-14.5-45.626-7.019-69.615C375.98,1402.264,389.761,1377.048,413.928,1363.769Z" style="         fill: #ffa400;       "/>
    <path d="M167.383,1186.8c18.854-15.571,43.125-22.615,66.652-29.279l46.025-13.037c19.357-5.482,39.2-11.019,59.264-9.562s40.74,11.341,49.543,29.431c7.582,15.582,5.1,34.484-2,50.287s-18.381,29.286-28.847,43.1c-9.56,12.613-18.865,25.97-32.128,34.606-25.7,16.738-59.284,11.89-89.463,6.419-18.47-3.348-46.758-11.725-63.93-19.306C128.313,1259.95,127.922,1219.389,167.383,1186.8Z" style="         fill: #ff7900;       "/>
    <path d="M193.207,1029.362c45.314-46.455,113.344-69.626,177.593-60.488,18.187,2.587,38.41,7.172,53.641-3.1,18.6-12.542,18.167-42.286,3.959-59.65s-37.416-24.548-59.655-27.511a227.236,227.236,0,0,0-88.283,5.662" style="         fill: #ff7900;       "/>
    <path d="M388.141,765.577c47.931-5.47,97.314,7.883,137.532,34.525s67.374,55.141,80.1,101.676c10.7,39.132,58.137,61.775,76.3,50.681,29.073-17.753,33.361-59.719,26.283-93.04S680,797.653,657.2,772.344c-42.975-47.7-98.6-90.644-162.771-92.731" style="         fill: #ff7900;       "/>
    <path d="M669.444,587.259a253.167,253.167,0,0,1,102.505,150.43c4.674,20.312,6.937,41.575,16.473,60.108s29.046,34.1,49.653,30.971c13.3-2.022,24.539-11.492,31.841-22.792s11.247-24.386,15.067-37.285c6.518-22.013,7.947-38.048,3.7-60.609-3.828-20.331-8.523-46.623-16.435-65.739-11.3-27.3-26-44.435-38.739-64.565-12.944-20.448-28.95-18.986-42.009-22.832-7.416-2.185-15.339-1.455-23.024-.619-26.342,2.867-51.673,16.614-77.711,21.528" style="         fill: #ff7900;       "/>
    <path d="M1022.21,766.724c-3.192,15.716-7.966,31.286-8.163,47.321s5.108,33.217,18.148,42.552c7.169,5.132,15.986,7.433,24.718,8.648,24.427,3.4,51.994-2.378,67.174-21.814,7.472-9.567,11.247-21.455,14.346-33.191a406.215,406.215,0,0,0,12.934-83.039c1.214-23.892,8.305-65.687-4.361-85.981-7.626-12.219-32.8-13.957-44.466-22.4-14.924-10.8-109.887-63.856-102.795-11.967,1.561,11.424,11.357,25.054,15.031,36.371a248.7,248.7,0,0,1,9.493,40.562A241.283,241.283,0,0,1,1022.21,766.724Z" style="         fill: #ff7900;       "/>
    <path d="M1277.528,739.775c8.231,55.724-32.889,107.555-35.145,163.839-.57,14.216,1.967,29.706,12.261,39.528,5.882,5.613,13.787,8.79,21.825,10.012,20.918,3.179,42.224-6.458,57.587-21.006s25.682-33.547,34.87-52.606c3.2-6.644,6.372-13.689,5.945-21.052-.5-8.614-5.8-16.1-10.941-23.034q-19.71-26.569-40.186-52.561" style="         fill: #ff7900;       "/>
    <path d="M1972.171,162.389c.08,19.985-13.446,37.12-26.282,52.44-6.423,7.666-8.882,20.884-17.428,26.081s-23.684,2-32.756-2.211c-9.56-4.437-14.839-14.674-22.683-21.714-28.407-25.5-97.1-27.053-58.9-88.555,40.174-64.7,60.531-50.253,100.087-31.45C1939.651,109.076,1972.045,130.78,1972.171,162.389Z" style="         fill: #ff7900;       "/>
    <path d="M1725.586,293.283c3.983-13.307,17.808-21.9,31.627-23.309s27.564,3.126,40.206,8.879c16.691,7.6,32.865,17.936,42.782,33.361s12.2,36.793,1.714,51.834c-6.24,8.946-16.006,14.641-24.37,21.643A92.889,92.889,0,0,0,1794.819,414c-1.158,2.229-2.518,4.752-4.959,5.347-1.77.432-3.6-.309-5.235-1.113-21.3-10.472-35.106-33.8-57.786-40.794-12.342-3.808-29.091-4.656-32.63-17.077-1.986-6.971,1.732-14.112,4.541-20.794s19.712-17.06,14.671-22.269" style="         fill: #ff7900;       "/>
    <path d="M1644.522,452.434a98.182,98.182,0,0,1,75.042,41.075c5.256,7.5,9.55,16.232,9.114,25.378-.514,10.8-7.408,20.091-14.014,28.644l-31.2,40.39c-7.652,9.907-17.9,20.912-30.251,18.867-11.695-1.937-17.916-14.341-25.406-23.529-7.98-9.789-19.658-18.322-20.588-30.918-.339-4.592.875-9.144,2.139-13.573q6.108-21.409,14.075-42.231" style="         fill: #ff7900;       "/>
    <path d="M1520.371,720.631c-1.711,5.469-2.988,11.4-1.278,16.871,1.432,4.58,4.794,8.282,8.274,11.586A109.223,109.223,0,0,0,1544.7,762.51c5.077,3.171,11.075,6.011,16.858,4.464,5.024-1.343,8.6-5.663,11.779-9.78q19.2-24.877,36.034-51.472c2.026-3.2,4.053-6.486,5-10.154,5.813-22.412-29.735-48.807-50.449-43.808C1541.514,657.169,1526.465,701.15,1520.371,720.631Z" style="         fill: #ff7900;       "/>
    <path d="M1186.778,1310.349c16.076-12.176,35.057-19.931,54.256-26.1,11.942-3.84,24.306-7.15,36.838-6.622s25.4,5.4,33.055,15.344c5.38,6.99,7.765,15.829,9.044,24.556,1.167,7.965,1.49,16.244-.922,23.923-5.833,18.572-25.259,28.528-41.744,38.886-28.633,17.992-51.03,42.094-69.5,70.164-18.864,28.674-37.563,32.388-45.2-10.128-3.659-20.362-20.2-31.868-17.879-51.416C1148.546,1356.746,1159.328,1331.141,1186.778,1310.349Z" style="         fill: #ff7900;       "/>
    <path d="M1202.049,1570.615c-4.428-39.326,22.8-80.063,62.408-93.377,11.8-3.967,24.293-5.675,36.711-7.122,8.282-.965,16.919-1.79,24.749.862,10.161,3.441,17.39,12.446,20.406,22.228s2.32,20.28.427,30.342a135.7,135.7,0,0,1-14.822,40.849c-3.36,6.035-7.358,12.016-13.3,15.9-5.557,3.635-12.313,5.119-18.828,6.793a246.761,246.761,0,0,0-74.4,32.926c-5.8,3.833-11.618,8-18.471,9.636q-1.052-15.5-2.1-31.009" style="         fill: #ff7900;       "/>
    <path d="M.019,1124.832c.238,58.208,2.749,116.348,7.9,174.333,3.433,38.637,7.163,77.238,15.543,115.162,9.417,42.621,23.4,84.976,45.1,123.007,11.518,20.189,25.469,39.317,42.4,55.322,16.808,15.891,36.622,28.6,57.543,38.363,45.441,21.2,96.68,29.858,146.621,26.354,53.211-3.734,105.6-21.291,148.675-53.094,43.384-32.028,71.071-80.227,84.764-131.82,6.547-24.67,9.393-49.785,9.726-75.26.383-29.328-.206-58.705-2.685-87.94a520.751,520.751,0,0,0-23.147-117.089c-15.285-47.114-32.966-93.518-57.634-136.584-6.958-12.147-14.28-24.08-21.741-35.923-4.635-7.357-16.361-.568-11.7,6.836,14.149,22.46,27.8,45.277,39.38,69.185,10.953,22.613,19.67,45.561,28.148,69.506,6.424,18.144,12.712,36.351,17.782,54.928a470.823,470.823,0,0,1,11.605,55.9c.787,5.383,1.313,9.466,1.993,15.427q1.014,8.895,1.765,17.817c1.129,13.32,1.858,26.672,2.288,40.032.5,15.6.6,31.2.411,46.807a326.494,326.494,0,0,1-2.2,37.316,286.952,286.952,0,0,1-6.848,34.658,281.707,281.707,0,0,1-12.05,35.971c-9.473,22.953-22.862,45.406-39.637,63.976-17.567,19.447-39.327,34.634-62.554,46.588a271.032,271.032,0,0,1-72.689,24.826,292.515,292.515,0,0,1-145.3-9.073,238.13,238.13,0,0,1-60.673-29.445,195.057,195.057,0,0,1-46.415-45.359c-26.287-36.08-42.26-77.189-53.782-119.971q-6.88-25.546-11.352-51.667-1.619-9.384-2.915-18.819c-.242-1.741.214,1.658-.071-.527-.068-.522-.137-1.044-.2-1.567q-.221-1.713-.427-3.427c-.616-5.105-1.163-10.219-1.717-15.331-6.462-59.642-10.6-119.5-11.87-179.482q-.421-19.964-.487-39.933c-.035-8.714-13.58-8.732-13.545,0Z" fill="#000000"/>
    <path d="M437.12,1021.493c-3.006,17.466-5.942,34.972-9.782,52.279a373.8,373.8,0,0,1-10.879,38.75c-2.978,8.809-6.178,17.542-9.423,26.256-1.239,3.326,1.379,7.568,4.73,8.331,3.842.875,7-1.169,8.331-4.73,5.331-14.315,10.574-28.689,14.815-43.372,3.919-13.568,6.854-27.38,9.465-41.252,2.046-10.867,3.929-21.764,5.8-32.661a7.333,7.333,0,0,0-.682-5.219,6.9,6.9,0,0,0-4.048-3.112c-3.286-.749-7.688,1-8.331,4.73Z" fill="#000000"/>
    <g>
      <path d="M385.328,1468.5s7.087-60.586,42.535-70.917,68.845,25.513,68.845,25.513-11.177,49.553-38.885,58.25S385.328,1468.5,385.328,1468.5Z" style="         fill: #fff;       "/>
      <path d="M392.1,1468.5c.013-.108.027-.215.041-.322.124-1-.24,1.745-.19,1.407.026-.179.05-.359.075-.539.161-1.124.342-2.244.536-3.363q1.006-5.814,2.463-11.539a143.086,143.086,0,0,1,4.808-15.428c.5-1.34,1.043-2.666,1.587-3.991-1.045,2.544,0,.015.282-.618q.5-1.122,1.023-2.231c1.282-2.71,2.683-5.364,4.226-7.935q1.174-1.957,2.465-3.843.626-.912,1.279-1.8c.2-.278.413-.555.621-.831.782-1.04-1.185,1.5-.1.145a53.931,53.931,0,0,1,6.138-6.539q.805-.72,1.643-1.4c.446-.362,1.546-1.16-.375.272.338-.252.673-.509,1.016-.756a40.29,40.29,0,0,1,3.731-2.4q.941-.533,1.91-1.013c.658-.325,3.247-1.346.715-.373,1.443-.554,2.882-1.075,4.375-1.485q1.562-.429,3.149-.748.7-.14,1.395-.259c.63-.107,2.63-.228.284-.063,1.956-.137,3.882-.358,5.848-.36a51.7,51.7,0,0,1,6.068.356c.218.025.447.072.665.082-.015,0-1.87-.276-.808-.1.439.071.879.135,1.317.211q1.471.252,2.928.582a71.931,71.931,0,0,1,10.852,3.46c.968.386-.73-.312-.734-.313.2.069.393.168.586.251q.654.285,1.3.581,1.285.585,2.55,1.215,2.4,1.193,4.723,2.528c2.882,1.651,5.677,3.453,8.385,5.376q.854.606,1.7,1.228.459.339.914.682c.264.2,1.538,1.18.391.294-1.119-.865-.067-.049.164.133q.411.324.818.652.777.624,1.543,1.262,3.761,3.132,7.208,6.6c.105.105.208.214.31.324l-1.742-6.59a124.159,124.159,0,0,1-4.652,15.2q-.621,1.694-1.282,3.373-.334.848-.679,1.692c-.11.267-.221.533-.331.8-.576,1.4.644-1.5.147-.347-1.071,2.478-2.2,4.93-3.426,7.336-1.253,2.462-2.6,4.878-4.052,7.226q-1.155,1.861-2.4,3.662-.546.785-1.113,1.554c-.216.293-.435.582-.653.873-.514.685,1.153-1.467.225-.3a55.116,55.116,0,0,1-5.609,6.113q-.721.67-1.472,1.31-.348.3-.7.586c-.135.11-.271.217-.406.327-.775.629,1.272-.959.653-.5-1.073.791-2.159,1.554-3.3,2.241a35.272,35.272,0,0,1-3.5,1.83c-1.128.517,1.526-.607.564-.235-.317.122-.632.248-.951.364-.675.244-1.358.462-2.048.661a42.041,42.041,0,0,1-4.337,1q-.6.107-1.192.2a5.116,5.116,0,0,1-.6.088c-.028-.041,1.647-.2,1.044-.143-.818.08-1.632.182-2.452.246a69.333,69.333,0,0,1-9.839.025q-2.522-.162-5.031-.467c-.327-.039-1.7-.219-.4-.044,1.394.188-.294-.044-.563-.084q-1.3-.19-2.6-.413a148.09,148.09,0,0,1-18.981-4.649q-7.637-2.375-15.06-5.375-.694-.279-1.387-.565c-.4-.163-2.059-.861-.623-.255s-.041-.019-.4-.173-.709-.307-1.063-.462c-.872-.382-1.738-.776-2.6-1.175-.118-.054-.236-.11-.353-.166a7.263,7.263,0,0,0-5.219-.683,6.907,6.907,0,0,0-4.047,3.112c-1.6,3.028-.98,7.629,2.43,9.267a181.489,181.489,0,0,0,23.174,9.046,150.211,150.211,0,0,0,20.692,5.167c7.6,1.288,15.4,2.1,23.1,1.33,7.23-.727,14.256-2.516,20.38-6.569a59.187,59.187,0,0,0,14.824-14.689c7.068-9.6,11.955-20.846,15.757-32.088,1.1-3.258,2.106-6.553,2.966-9.884.149-.575.3-1.152.428-1.733a7.257,7.257,0,0,0-1.8-6.695c-.19-.211-.4-.41-.6-.612a110.484,110.484,0,0,0-23.766-18.132c-14.241-8.1-30.634-12.638-46.978-9.418-13.626,2.685-24.3,11.605-32.072,22.762-6.75,9.686-11.274,20.988-14.571,32.271a146.172,146.172,0,0,0-4.516,20.6c-.131.931-.264,1.863-.374,2.8a6.758,6.758,0,0,0,1.984,4.789,6.774,6.774,0,0,0,9.578,0A7.861,7.861,0,0,0,392.1,1468.5Z" fill="#000000"/>
    </g>
    <path d="M138.972,1502.411a125.321,125.321,0,0,1,9.585-15.841q1.173-1.687,2.393-3.342.618-.836,1.247-1.663.151-.2.3-.394c.569-.752-.66.848-.6.778.268-.322.517-.662.777-.99,1.891-2.386,3.866-4.705,5.937-6.935a91.842,91.842,0,0,1,6.852-6.676q.867-.757,1.756-1.49.417-.344.84-.681c.141-.113.283-.223.424-.336.9-.718-1.435,1.088-.516.4,1.256-.943,2.528-1.858,3.844-2.715q1.951-1.272,4.006-2.379.99-.53,2-1.015.534-.256,1.074-.5l.481-.212c.966-.428-1.69.686-.651.277a42,42,0,0,1,8.764-2.438c1.016-.163-2,.239-.506.074q.585-.066,1.173-.11,1.184-.088,2.37-.1,1.132-.006,2.265.067.538.035,1.075.086c.18.018.359.04.539.057,1.152.114-1.8-.272-.717-.1a57.31,57.31,0,0,1,10.78,2.794q.673.247,1.342.511c.493.193,2.2.96.007-.018.875.391,1.754.769,2.619,1.181q2.52,1.2,4.942,2.6a88.883,88.883,0,0,1,9.244,6.129,7.842,7.842,0,0,1,.625.475s-1.431-1.118-.627-.484c.328.258.656.514.981.774q1.091.873,2.159,1.773,2.1,1.768,4.116,3.636,3.726,3.446,7.176,7.174,3.1,3.333,5.988,6.853,1.311,1.593,2.578,3.221c.828,1.058-.868-1.135-.406-.527.167.22.335.438.5.657q.536.705,1.062,1.416c1.714,2.311,3.326,4.682,4.908,7.083.073.111.143.225.212.339l1.059-8.207a142.771,142.771,0,0,1-12,12.543q-2.893,2.729-5.912,5.32-1.675,1.437-3.394,2.824-.822.664-1.653,1.316c-.12.093-.241.186-.36.28-.623.49,1.28-.976.646-.5-.328.247-.651.5-.978.744a101.619,101.619,0,0,1-15.64,9.845q-.978.487-1.969.947-.495.228-.991.449c-.189.084-.379.166-.568.249-.832.37.7-.278.763-.319a20.966,20.966,0,0,1-4.3,1.61c-1.381.455-2.78.857-4.195,1.194q-1.011.24-2.032.435c-.338.065-.677.125-1.016.182-.194.032-.388.059-.581.092-.908.151.887-.128.929-.12a10.15,10.15,0,0,0-2.175.22q-1.085.078-2.171.092a36.948,36.948,0,0,1-4.374-.218c-.211-.022-.423-.053-.635-.072-.734-.067,1.176.124,1.008.138a5.932,5.932,0,0,1-1.266-.2q-1.188-.2-2.365-.467c-1.527-.341-3.037-.756-4.527-1.234-1.559-.5-3.087-1.078-4.6-1.691-1.023-.412,1.641.725.255.1-.35-.158-.7-.312-1.052-.473q-1.127-.516-2.234-1.072a87.253,87.253,0,0,1-8.446-4.867q-1.989-1.293-3.916-2.675-.919-.657-1.826-1.334-.45-.336-.9-.675c-1.349-1.027,1.068.844-.014-.01q-3.533-2.788-6.891-5.786a167.413,167.413,0,0,1-15.433-16.014c-.076-.087-.146-.18-.218-.271a6.771,6.771,0,0,0-4.789-1.983,6.9,6.9,0,0,0-4.789,1.983,6.814,6.814,0,0,0-1.983,4.789,7.877,7.877,0,0,0,1.983,4.789,129.817,129.817,0,0,0,13.134,13.977c9.964,9.346,21.112,17.535,33.819,22.7a52.259,52.259,0,0,0,20.06,4.1,51.623,51.623,0,0,0,18.86-4.071c12.286-5.053,23.1-12.856,32.962-21.675a151.036,151.036,0,0,0,15.141-15.363c.073-.088.147-.174.22-.262,1.91-2.3,2.728-5.483,1.059-8.207a138.313,138.313,0,0,0-14.07-18.578c-9.793-11.178-21.519-21.549-35.117-27.8-7.48-3.44-15.691-6.094-24.012-6.022a46.241,46.241,0,0,0-20.825,5.558c-12.17,6.317-21.781,16.819-29.877,27.666a132.051,132.051,0,0,0-12.244,19.433c-.056.112-.114.222-.169.334-1.566,3.172-.958,7.476,2.43,9.266C132.762,1506.455,137.3,1505.8,138.972,1502.411Z" fill="#000000"/>
    <path d="M206.162,1499.128c.64,2.088,1.191,4.2,1.63,6.339q.33,1.6.581,3.223l.07.462q.162,1.131-.05-.41a5.858,5.858,0,0,1,.186,1.626,68.294,68.294,0,0,1,.08,12.844c-.307,3.539,3.334,6.927,6.773,6.773,3.931-.177,6.443-2.982,6.772-6.773a73.426,73.426,0,0,0-2.981-27.685c-1.037-3.383-4.781-5.879-8.331-4.73-3.41,1.1-5.842,4.7-4.73,8.331Z" fill="#000000"/>
    <path d="M451.788,1446.652a43.485,43.485,0,0,1,2.864,4.484q.594,1.074,1.127,2.183c.178.369.342.744.516,1.114.573,1.219-.592-1.493.031.082a43.792,43.792,0,0,1,2.631,10.08l-.241-1.8q.288,2.236.359,4.488c.109,3.538,3.037,6.94,6.772,6.773,3.576-.16,6.89-2.979,6.773-6.773a49.634,49.634,0,0,0-9.136-27.466,7.344,7.344,0,0,0-4.048-3.113,6.924,6.924,0,0,0-5.218.683c-2.836,1.828-4.654,6.2-2.43,9.266Z" fill="#000000"/>
    <path d="M308.683,1534.156c2.279,8.391,7.157,16.319,14.641,20.991a24.4,24.4,0,0,0,24.169.773,20.28,20.28,0,0,0,9.437-10.986,6.818,6.818,0,0,0-.682-5.218,6.9,6.9,0,0,0-4.048-3.113c-3.871-.881-6.968,1.182-8.331,4.731-.4,1.032.729-1.413.185-.461-.154.269-.287.551-.446.818-.185.309-.411.593-.6.9-.338.563.577-.883.589-.762.009.084-.34.4-.4.464-.416.457-.874.86-1.332,1.273-.77.693,1.474-.989.258-.223-.307.193-.607.4-.922.579q-.406.235-.827.445c-.138.07-.291.126-.424.2-.625.365,1.023-.482.9-.367a6.007,6.007,0,0,1-2.107.7c-.4.105-1.5.543-1.879.388-.144-.058,1.723-.162,1-.141-.159,0-.321.033-.48.045q-.641.051-1.284.055c-.644,0-1.281-.047-1.923-.092-1.127-.081,1.633.312.533.062-.364-.083-.731-.146-1.093-.237a6.108,6.108,0,0,1-1.969-.637c-.082-.064,1.426.657.768.318-.163-.084-.334-.154-.5-.236-.384-.188-.762-.391-1.133-.6-.439-.253-1.8-.821-1.985-1.3-.03-.077,1.186.965.648.5-.138-.12-.283-.231-.422-.349q-.489-.416-.953-.857-.867-.823-1.649-1.73c-.241-.278-.458-.584-.708-.853-.052-.056.9,1.227.5.634-.14-.2-.292-.4-.434-.6a30.727,30.727,0,0,1-2.692-4.7c-.079-.17-.151-.344-.232-.513-.364-.765.541,1.374.245.58-.153-.41-.32-.814-.468-1.226-.337-.937-.628-1.889-.889-2.849-.928-3.418-4.859-5.854-8.331-4.73a6.9,6.9,0,0,0-4.73,8.331Z" fill="#000000"/>
    <path d="M329.077,1557.87a235.121,235.121,0,0,1-25.174,25.4q-3.3,2.859-6.71,5.594a36.451,36.451,0,0,0-3.178,2.508c1.265-1.28.409-.317.019-.02q-.339.259-.678.516-1.02.773-2.047,1.533-7.19,5.328-14.774,10.1-8.478,5.331-17.391,9.922a6.824,6.824,0,0,0-2.43,9.267,6.93,6.93,0,0,0,9.266,2.429,241.7,241.7,0,0,0,58.916-42.832q7.2-7.118,13.759-14.839a7.228,7.228,0,0,0,1.984-4.789,6.893,6.893,0,0,0-1.984-4.789c-2.524-2.317-7.126-2.881-9.578,0Z" fill="#000000"/>
    <path d="M330.175,1559.238c-.6,5.035,2.15,9.749,5.191,13.491,3.263,4.016,7.634,7.192,11.927,10.014,10.658,7.006,22.661,12.082,34.56,16.552,6.18,2.322,12.447,4.424,18.8,6.242a6.775,6.775,0,0,0,3.6-13.062c-5.36-1.534-10.66-3.275-15.9-5.174q-4.315-1.563-8.576-3.279-.977-.393-1.95-.8a9,9,0,0,1-1.136-.473c0-.019,1.405.6.808.341l-.647-.275q-2.094-.9-4.171-1.835a147.706,147.706,0,0,1-15.707-8.146c-2.23-1.353-4.413-2.788-6.5-4.353-.11-.083-.219-.169-.33-.25-.548-.4.953.771.828.642a6.58,6.58,0,0,0-.633-.5q-.714-.575-1.407-1.174c-.834-.725-1.642-1.48-2.409-2.275-.37-.385-.732-.779-1.08-1.183-.191-.222-.368-.458-.562-.677-.412-.464.836,1.137.728.949-.069-.12-.173-.225-.252-.339a18.311,18.311,0,0,1-1.544-2.53c-.146-.3-.513-1.168.04.136.566,1.335.163.37.057.055-.128-.386-.221-.776-.315-1.17-.285-1.2.107,1.15.112.969s-.035-.389-.042-.58a8.537,8.537,0,0,1,.06-1.318,6.745,6.745,0,0,0-1.983-4.788,6.772,6.772,0,0,0-9.578,0,7.868,7.868,0,0,0-1.984,4.788Z" fill="#000000"/>
    <path d="M112.579,1592.766c5.537,16.849,11.6,33.536,17.751,50.17q22.545,61,48.578,120.644c21.4,48.928,44.63,97.16,71.155,143.532,27.714,48.451,60.161,93.711,95.482,136.891a1332.059,1332.059,0,0,0,113.564,122.891c15.7,14.906,31.841,29.431,48.872,42.815,11.491,9.03,23.5,18.416,36.89,24.494,8.9,4.037,20.865,6.923,28.558-1.254,8.7-9.249,2.213-24.356-2.186-33.991-7.733-16.938-18.325-32.635-28.689-48.039-13.944-20.724-28.5-41.03-42.853-61.472-15.605-22.227-31.077-44.567-45.594-67.526-13.744-21.736-26.35-44.2-38.905-66.636-13-23.23-25.64-46.688-37.127-70.708-10-20.908-19.284-42.185-25.617-64.555-1.326-4.683-2.5-9.41-3.459-14.183-.422-2.112-.784-4.234-1.124-6.361-.027-.172-.315-2.234-.107-.668-.054-.4-.107-.811-.153-1.217-.136-1.193-.266-2.386-.368-3.582a77.681,77.681,0,0,1-.176-11.667c.057-.857.143-1.711.226-2.566.187-1.945-.181.669.17-1.166.329-1.72.672-3.423,1.17-5.105q.324-1.1.714-2.173c.154-.422.324-.837.484-1.257-.622,1.631-.269.591-.062.194a43.173,43.173,0,0,1,2.213-3.979c.236-.356.5-.7.733-1.054.785-1.214-.769.9-.147.188.47-.535.919-1.083,1.412-1.6q.816-.853,1.7-1.635c.215-.19.451-.366.659-.562.95-.893-1.23.772.19-.139a43.756,43.756,0,0,1,4.069-2.437c.279-.139.564-.268.844-.406,1.461-.721-1.419.482.139-.072.935-.333,1.856-.694,2.805-.988a44.8,44.8,0,0,1,5.143-1.25c.49-.09,3.164-.449,1.572-.265,1.194-.138,2.391-.247,3.591-.32,20.56-1.258,39.979,4.828,57.235,15.967,18.715,12.08,34.393,29.761,47.627,48.105,16.077,22.285,29.558,46.367,42.342,70.649,13.963,26.52,27.052,53.486,40.674,80.18,23.334,45.726,48.868,90.4,76.5,133.665,13.135,20.565,26.779,40.84,41.439,60.354,11.775,15.673,24.07,31.31,38.409,44.747,8.652,8.108,19.788,17.909,32.331,18.38,11.114.418,14.282-10.251,13.349-19.414-1.423-13.984-6.38-27.589-11.164-40.708-7.329-20.1-15.655-39.834-24.031-59.515-20.954-49.229-42.9-98.038-62.848-147.691-21.069-52.442-39.11-106.105-56.4-159.9-8.534-26.555-16.878-53.227-23.831-80.248-.935-3.635-1.758-7.3-2.727-10.928-2.248-8.413-15.318-4.844-13.061,3.6,3.633,13.6,7.039,27.23,11,40.748,12.9,44.082,27.551,87.658,42.551,131.061,18.345,53.078,39.55,104.915,61.781,156.47,18.582,43.093,38.189,85.412,54.289,129.4,2.7,7.364,5.265,14.786,7.434,22.324.876,3.044,1.687,6.11,2.365,9.2.292,1.337.561,2.679.791,4.028.1.591.176,1.187.281,1.777.087.491,0,1.2-.1-.778.02.383.1.766.131,1.149.169,1.994.091,3.917.105,5.905.008,1.239.516-1.963.048-.435-.1.325-.172.691-.241,1.024s-.59,1.609-.008.2c.57-1.384.082-.16-.14.145-.867,1.193,1.012-1.171.467-.574-.842.922.062,0,.6-.376-1.723,1.19,1.568-.33-.065.065-1.228.3,2.016.028.752-.092-.425-.041-.9.01-1.326.011-1.259,0-1.094-.243.144.085-.561-.149-1.157-.2-1.724-.34-1.034-.252-2.017-.617-3.021-.965-1.629-.564,1.253.661-.28-.128-.649-.334-1.314-.636-1.959-.981a59.232,59.232,0,0,1-7.319-4.716q-.554-.411-1.1-.831c.145.111,1.19.942.256.19-.63-.508-1.263-1.013-1.886-1.531q-2.178-1.811-4.27-3.724c-2.961-2.695-5.81-5.511-8.584-8.4-14.2-14.772-26.2-30.523-38-46.926-29.817-41.429-56.358-85.3-81.248-129.826-26.963-48.239-49.95-98.519-76.421-147.007-12.878-23.589-26.754-46.726-43.419-67.862-14.085-17.864-30.7-34.48-50.776-45.53-27.2-14.969-81.442-26.284-95.357,11.967-5.693,15.646-2.463,34.036,1.449,49.681,5.575,22.293,14.608,43.724,24.2,64.545,10.942,23.749,23.166,46.895,35.8,69.782,12.384,22.437,24.892,44.893,38.28,66.749,27.349,44.645,58.766,86.59,88.361,129.732,11.29,16.459,22.68,33.1,31.878,50.844q1.25,2.413,2.422,4.865.55,1.155,1.077,2.32c.241.532,1.38,3.281.669,1.5a69.529,69.529,0,0,1,2.892,8.4c.3,1.151.469,2.316.724,3.474.178.8-.063-1.84-.02.111.013.6.067,1.184.055,1.78,0,.188.046,1.323-.084,1.38.1-.043.531-2.09-.017-.272a5.818,5.818,0,0,0-.353,1.167c-.021.5.884-1.745.036-.251-.675,1.189-.048.194.268-.262-.23.333-.695.552-.892.886.408-.692,1.4-1.077.21-.239-1.131.8-.781,0,.136.029a11.118,11.118,0,0,0-2.749.732c-.681.342,1.894-.1.7-.092-.276,0-.553.064-.831.072-.485.013-.968.029-1.454.033a5.271,5.271,0,0,0-1.114-.084c.583-.164,1.81.365.365.019-.927-.221-1.848-.422-2.761-.7-1.042-.321-2.045-.734-3.071-1.1-1.3-.459,1.532.726-.271-.116-.6-.282-1.214-.551-1.815-.839a129.23,129.23,0,0,1-16.331-9.671c-3.271-2.212-6.484-4.512-9.656-6.866-4.02-2.985-5.743-4.326-9.681-7.474-37.915-30.3-72.352-65.182-105.187-100.829-38.924-42.259-75.7-86.739-108.419-134-30.306-43.785-55.907-90.716-79.235-138.527-21.529-44.127-41.031-89.094-59.122-134.674-11.579-29.173-22.62-58.573-32.882-88.236-1.432-4.139-2.86-8.281-4.227-12.442-2.709-8.244-15.794-4.714-13.061,3.6Z" fill="#000000"/>
    <path d="M583.609,1709.4c-7.664-52.172-5.517-105.4,9.686-156.048,13.415-44.693,36.284-85.7,63.05-123.7,42.682-60.6,96.665-112.843,170.787-130.732,45.951-11.09,94.12-8.059,139.823,2.716,42.755,10.079,86.2,24.606,120.592,52.832,56.023,45.98,85.977,116.049,102.38,185,17.192,72.269,21.141,147.9,15.805,221.864-2.162,29.97-5.922,59.917-12.5,89.257-8.041,35.86-21.363,70.456-35.154,104.434-15.672,38.612-32.782,76.615-49.342,114.848-12.636,29.174-26.25,58.669-34.74,89.393-3.232,11.7-9.766,39.437,10.569,39.377,8.418-.025,16.271-5.474,22.662-10.374,10.78-8.264,20.233-18.171,29.218-28.316,27.3-30.819,50.982-64.972,73.319-99.484a1508.394,1508.394,0,0,0,79.292-138.291c23.938-47.28,44.162-95.954,63.771-145.143,18.195-45.641,36.11-91.417,51.89-137.96,34.248-101.013,56.417-205.411,61.054-312.145,2.067-47.576,1.047-95.422-1.138-142.985-1.8-39.136-5-78.218-10.572-117.007-10.4-72.351-30.058-143.79-65.312-208.172-37.716-68.879-92.338-126.35-155.824-172.1-38.9-28.036-80.8-51.757-124.076-72.333-50.623-24.07-103.212-43.806-158.2-55.19a540.281,540.281,0,0,0-275.3,14.371c-72.1,23.226-138.7,60.715-199.564,105.447-55.529,40.812-108.818,85.545-153.238,138.426-55.919,66.57-101.713,141.4-141.967,218.275a1840.926,1840.926,0,0,0-77.652,168.31c-3.414,8.509-6.807,17.037-9.955,25.649l9.949-4.047c-17.1-12.231-33.438-25.374-47.448-41.128-16.929-19.036-30.26-40.976-42.832-63.033-4.316-7.573-16.023-.756-11.7,6.836,13.151,23.074,27.245,45.867,44.95,65.775,14.769,16.606,32.168,30.357,50.189,43.245,3.841,2.747,8.586-.317,9.949-4.047,12.008-32.85,26.031-65.05,40.479-96.882C179.2,1064.317,216.066,993.938,258.9,927.4c23.76-36.915,49.422-72.695,78-106.053,24.818-28.974,52.038-55.053,81.236-79.544,50.541-42.395,103.531-81.9,161.891-112.984,74.159-39.5,155.968-64.386,240.21-67.459,106.963-3.9,209.625,27.637,304.21,75.7,76.727,38.984,148.7,89.206,203.7,156.066,46.4,56.408,77.722,123.107,96.177,193.529,19.467,74.285,25.665,151.367,27.912,227.9,1.5,51.179,1.642,102.4-2.6,153.465a1028.415,1028.415,0,0,1-26.6,161.107c-23.61,95.758-60.494,187.235-96.971,278.633a1404.523,1404.523,0,0,1-148.226,276.178c-20.4,29.55-41.934,59.519-68.069,84.348-6.493,6.169-14.853,13.407-22.267,16.181a7.339,7.339,0,0,1-2.937.649c-1.814.318.739.047-.721-.129.972.117.574,1.29.128-.393.215.812-.139-1.173-.173-1.67-.6-8.8,2.517-17.995,5.21-26.653,4.418-14.2,9.884-28.081,15.489-41.849,14.781-36.307,31.06-71.993,46.568-107.991,15.93-36.976,31.655-74.2,44.148-112.507,9.393-28.8,15.527-58.207,19.527-88.207a782.971,782.971,0,0,0-1.022-212.747c-10.153-71.536-31.2-145.323-75.011-203.923-20.493-27.411-45.895-51.081-76.02-67.58-20.112-11.015-42.111-18.609-63.982-25.263a414.05,414.05,0,0,0-78.629-16.156c-42.237-4.286-85.625-.313-125.5,14.729-33.576,12.666-63.836,32.4-90.026,56.842-27.6,25.761-50.584,56.44-71.269,87.9-25.209,38.337-45.743,80.029-57.027,124.653-12.34,48.8-13,99.21-5.706,148.846,1.262,8.593,14.316,4.94,13.061-3.6Z" fill="#000000"/>
    <path d="M1197.316,1575.026c.785,26.507-2.2,53.443-5.578,79.668-8.934,69.455-26.439,137.915-49.739,203.887-25.784,73-59.171,143.794-101.336,208.814-15.193,23.428-31.555,46.24-50.122,67.13a268.466,268.466,0,0,1-22.158,22.455c-6.067,5.391-10.553,9.124-17.983,13.3-1.212.681-2.449,1.308-3.7,1.913-.39.188-.79.358-1.186.535.119-.053,1.522-.59.457-.2-.748.276-1.486.569-2.246.813-1.049.336-2.109.565-3.176.826-1.893.463.336.046-.183.044-.563,0-1.161.036-1.721.073-2.655.176.554.162-.5.019-.962-.131-2.5-1.045-.16.1-.777-.381-1.987-1.561.038.215-1.177-1.032-.615-.613-.089.106-.731-1-.37-1.941-.092.157a10.258,10.258,0,0,0-.518-1.751c-.647-1.839-.059,1.656-.03-.237.011-.733-.055-1.467-.035-2.2.023-.823.123-1.637.177-2.457.111-1.691-.174.916-.037.206.089-.463.138-.933.226-1.4.395-2.085.849-4.151,1.392-6.2,3.1-11.74,7.805-23.078,12.468-34.263,1.368-3.281,2.33-5.54,4.147-9.758q2.528-5.864,5.1-11.708,5.683-12.955,11.438-25.881c19.454-43.934,38.386-88.1,55.029-133.194,20.526-55.608,37.756-112.5,49.915-170.537,13.644-65.13,20.984-131.771,19.535-198.354-1.566-71.97-13.478-143.77-36.589-211.993-6.094-17.987-12.986-35.681-20.494-53.122-1.446-3.36-6.384-4.115-9.266-2.43-3.473,2.032-3.882,5.893-2.43,9.266a682.707,682.707,0,0,1,53.161,216.539c5.264,67.522,1.089,135.6-10.436,202.282-10.508,60.808-26.888,120.5-47.139,178.754-16.512,47.5-35.7,93.985-55.941,140.006-13.412,30.5-28.523,60.794-39.043,92.463-2.781,8.372-5.86,17.875-4.379,26.79,1.346,8.108,8.112,12.611,16.112,12.068,14.4-.978,27.491-12.087,37.756-21.208,17.967-15.965,33.342-34.839,47.733-54.009,43.281-57.656,77.452-122.35,105.445-188.629,30.623-72.506,53.81-148.4,67.544-225.943,6.867-38.766,12.062-78.39,12.217-117.834.006-1.7.011-3.412-.039-5.117-.258-8.7-13.8-8.733-13.545,0Z" fill="#000000"/>
    <path d="M1415.043,918.426q27.335-49.5,54.066-99.333c35.723-66.32,71.015-132.89,105.024-200.109,15.525-30.685,30.822-61.5,45.273-92.71,13.548-29.256,26.476-58.788,40.189-87.972,34.928-74.337,71.666-147.931,111.475-219.784,18.234-32.91,37.114-65.522,57.678-97.041,14.893-22.826,30.23-45.756,49.64-64.953,19.965-19.747,47.107-36.591,75-41.7a64.039,64.039,0,0,1,17.575-.761,38.912,38.912,0,0,1,13.36,4.3,26.868,26.868,0,0,1,9.386,9.193,42.614,42.614,0,0,1,5.773,17.029c2.623,18.241-1.873,37.894-7.076,55.466a388.97,388.97,0,0,1-20.134,53.093c-15.781,34.027-36.129,65.637-57.937,96.071-25.418,35.47-52.52,69.7-78.66,104.636-32.522,43.463-63.145,88.112-92.992,133.441Q1654.1,621.823,1565.8,756.539c-45.271,68.895-91.388,137.339-132.84,208.639-2.132,3.667-4.263,7.336-6.329,11.041-4.25,7.62,7.445,14.458,11.7,6.836,32.074-57.506,68.686-112.583,104.871-167.532q85.9-130.445,171.5-261.085c31.192-47.454,61.835-95.341,94.674-141.682,28.125-39.69,57.85-78.173,87.209-116.947,46.961-62.022,93.931-127.914,112.293-204.879,6.507-27.278,10.873-68.17-18.268-84.577-24.605-13.853-56.57-2.49-79.346,9.724-24.757,13.276-45.021,31.575-62.272,53.523-20.543,26.137-38.41,54.337-55.514,82.8-42.833,71.289-80.9,145.5-117.374,220.2q-24.8,50.783-48.248,102.208c-13.04,28.684-25.913,57.4-39.731,85.722-33.674,69.03-69.433,137.05-105.567,204.816q-37.269,69.894-75.4,139.327-1.9,3.459-3.808,6.916c-4.217,7.636,7.477,14.477,11.7,6.836Z" fill="#000000"/>
    <path d="M168.8,1221.708l7.826,28.174c.948,3.412,4.845,5.859,8.331,4.731a6.893,6.893,0,0,0,4.73-8.331l-7.826-28.174c-.948-3.412-4.845-5.859-8.331-4.73a6.892,6.892,0,0,0-4.73,8.33Z" fill="#000000"/>
    <path d="M208.952,1204.57a154.467,154.467,0,0,0,14.588,46.269q3.015,6.084,6.579,11.871c1.854,3.017,6.146,4.442,9.267,2.429a6.884,6.884,0,0,0,2.429-9.266q-3.087-5.025-5.779-10.279-1.317-2.577-2.531-5.2-.559-1.212-1.1-2.435c-.21-.475-.415-.952-.621-1.429-.076-.176-.385-.9-.006-.01.4.938-.009-.029-.087-.218a148.653,148.653,0,0,1-7.179-22.216q-1.547-6.5-2.5-13.113a6.755,6.755,0,0,0-3.113-4.047,6.772,6.772,0,0,0-9.266,2.429,7.918,7.918,0,0,0-.682,5.219Z" fill="#000000"/>
    <path d="M254.019,1194.9A499.691,499.691,0,0,1,267.472,1253a6.8,6.8,0,0,0,3.112,4.047,6.913,6.913,0,0,0,5.219.683c3.781-1.224,5.366-4.578,4.73-8.331a499.691,499.691,0,0,0-13.453-58.108c-1-3.4-4.805-5.871-8.331-4.73a6.883,6.883,0,0,0-4.73,8.331Z" fill="#000000"/>
    <path d="M298.507,1186.933q2.906,4.99,5.377,10.215.568,1.2,1.111,2.422c.182.4.36.812.538,1.219.117.27.224.55.351.816-.152-.317-.506-1.217-.167-.39.731,1.781,1.435,3.572,2.094,5.381a132.1,132.1,0,0,1,5.93,22.062q.291,1.64.541,3.286c.078.513.148,1.026.224,1.538.114.771-.1-.734-.093-.7.029.3.076.588.112.881.273,2.2.485,4.415.649,6.63.259,3.525,2.929,6.945,6.772,6.773,3.447-.155,7.051-2.989,6.773-6.773a141.649,141.649,0,0,0-12.3-48.167A132.356,132.356,0,0,0,310.2,1180.1c-1.783-3.062-6.195-4.41-9.266-2.43a6.9,6.9,0,0,0-2.429,9.266Z" fill="#000000"/>
    <path d="M338.9,1179.316l11.9,23.787c1.589,3.174,6.329,4.322,9.266,2.429a6.938,6.938,0,0,0,2.429-9.266l-11.9-23.787c-1.589-3.175-6.33-4.323-9.267-2.429a6.939,6.939,0,0,0-2.429,9.266Z" fill="#000000"/>
    <path d="M293.372,902.691a99.727,99.727,0,0,0-21.361,44.616,7.257,7.257,0,0,0,.683,5.218,6.9,6.9,0,0,0,4.047,3.113c3.343.761,7.618-1.01,8.331-4.73a92.87,92.87,0,0,1,2.823-11.054q.876-2.716,1.922-5.374c.18-.459.368-.916.552-1.373.566-1.409-.64,1.447-.025.059.4-.9.8-1.8,1.219-2.7a92.417,92.417,0,0,1,5.49-10q1.468-2.323,3.075-4.555.432-.6.874-1.194c.262-.352,1.337-1.675.093-.144.622-.765,1.226-1.546,1.855-2.306a7.281,7.281,0,0,0,1.984-4.789,6.893,6.893,0,0,0-1.984-4.789c-2.494-2.29-7.165-2.914-9.578,0Z" fill="#000000"/>
    <path d="M326.235,906.708A96.764,96.764,0,0,0,314,944.416a6.758,6.758,0,0,0,1.983,4.788,6.772,6.772,0,0,0,9.578,0,7.823,7.823,0,0,0,1.984-4.788c.042-.368.089-.734.13-1.1.1-.873-.223,1.526-.038.262.108-.731.218-1.462.341-2.191q.368-2.187.848-4.353a87.869,87.869,0,0,1,2.349-8.549q.695-2.106,1.5-4.175c.266-.687.581-1.363.826-2.058-.116.33-.523,1.213-.162.394.149-.338.3-.677.448-1.014a89.131,89.131,0,0,1,4.149-8.085c1.774-3.069.815-7.552-2.429-9.266a6.894,6.894,0,0,0-9.266,2.429Z" fill="#000000"/>
    <path d="M358.253,922.291l-2.7,17.284a7.39,7.39,0,0,0,.682,5.218,6.771,6.771,0,0,0,9.266,2.43,6.555,6.555,0,0,0,3.113-4.047l2.7-17.285a7.4,7.4,0,0,0-.682-5.218,6.772,6.772,0,0,0-9.267-2.43,6.552,6.552,0,0,0-3.112,4.048Z" fill="#000000"/>
    <path d="M393.953,925.647V946c0,3.543,3.115,6.936,6.773,6.773A6.891,6.891,0,0,0,407.5,946V925.647c0-3.542-3.115-6.936-6.772-6.772a6.89,6.89,0,0,0-6.773,6.772Z" fill="#000000"/>
    <path d="M494.351,708.494a113.712,113.712,0,0,0-37.189,30.94,7.408,7.408,0,0,0-1.983,4.789,6.9,6.9,0,0,0,1.983,4.789A6.818,6.818,0,0,0,461.951,751c1.662-.074,3.718-.6,4.789-1.983a109.022,109.022,0,0,1,16.122-16.755q1.046-.876,2.113-1.726c.338-.269,1.953-1.431.284-.232.341-.244.67-.508,1-.759q2.355-1.758,4.8-3.386a109.246,109.246,0,0,1,10.121-5.964,6.825,6.825,0,0,0,2.43-9.266,6.928,6.928,0,0,0-9.266-2.43Z" fill="#000000"/>
    <path d="M535.078,729.663a75.878,75.878,0,0,0-38.472,29.776,6.822,6.822,0,0,0,2.43,9.267,6.931,6.931,0,0,0,9.266-2.43c.511-.77,1.033-1.531,1.573-2.281.271-.374.55-.742.823-1.114q.462-.612-.458.585c.162-.208.325-.416.49-.622q1.6-2.012,3.357-3.9,1.887-2.028,3.936-3.9,1.023-.934,2.083-1.827c.3-.254.608-.507.915-.756.169-.137,1.532-1.187.556-.454s.4-.3.577-.426q.477-.352.961-.7,1.13-.8,2.29-1.561,2.236-1.459,4.584-2.741t4.786-2.372c.24-.107.482-.214.724-.318l-.889.372c.5-.175.977-.4,1.467-.593.861-.336,1.729-.651,2.6-.953,3.341-1.156,5.907-4.7,4.731-8.331-1.071-3.308-4.747-5.971-8.331-4.73Z" fill="#000000"/>
    <path d="M550.5,776.308c1.071-.838-1.175.892.2-.152q.614-.466,1.231-.927,1.06-.788,2.136-1.555,2.239-1.6,4.542-3.107,4.7-3.075,9.633-5.761,4.836-2.63,9.87-4.867.6-.269,1.21-.531c.269-.117.539-.232.809-.347q-1.312.55-.6.256c.883-.36,1.765-.724,2.654-1.071q2.665-1.044,5.372-1.974c3.341-1.155,5.907-4.7,4.73-8.331-1.071-3.309-4.746-5.97-8.331-4.731a148.247,148.247,0,0,0-43.028,23.52,6.761,6.761,0,0,0-1.984,4.789,6.893,6.893,0,0,0,1.984,4.789,6.818,6.818,0,0,0,4.789,1.984,7.93,7.93,0,0,0,4.789-1.984Z" fill="#000000"/>
    <path d="M587.222,796a118.527,118.527,0,0,0,23.531-10.074,6.774,6.774,0,0,0-6.837-11.7,111.9,111.9,0,0,1-11.256,5.538l1.618-.683a112.29,112.29,0,0,1-10.657,3.854c-3.384,1.033-5.878,4.783-4.73,8.331,1.1,3.413,4.7,5.838,8.331,4.73Z" fill="#000000"/>
    <path d="M609.372,836.387q5.712-2.845,11.529-5.472,2.8-1.263,5.626-2.471c.383-.164,1.771-.776.122-.056.433-.189.872-.366,1.308-.548q1.529-.635,3.062-1.254,11.616-4.692,23.569-8.473c3.372-1.068,5.887-4.757,4.73-8.331-1.094-3.382-4.714-5.876-8.331-4.73a337.47,337.47,0,0,0-48.451,19.639c-3.178,1.583-4.321,6.334-2.43,9.266a6.941,6.941,0,0,0,9.266,2.43Z" fill="#000000"/>
    <path d="M630.937,862.98a187.405,187.405,0,0,1,18.413-5.2q4.549-1.033,9.148-1.837,2.356-.411,4.724-.763.591-.087,1.184-.171c.232-.033,1.627-.208.522-.074s.291-.036.523-.065q.713-.09,1.425-.173a7.4,7.4,0,0,0,4.789-1.984,6.772,6.772,0,0,0,0-9.578,6.521,6.521,0,0,0-4.789-1.983,195.7,195.7,0,0,0-39.54,8.764c-3.35,1.131-5.9,4.713-4.73,8.331,1.077,3.329,4.737,5.943,8.331,4.73Z" fill="#000000"/>
    <path d="M651.181,909.209l21.906-1.655a7.22,7.22,0,0,0,4.789-1.984,6.883,6.883,0,0,0,1.983-4.789c-.154-3.44-2.989-7.058-6.772-6.772l-21.906,1.655a7.219,7.219,0,0,0-4.789,1.983,6.884,6.884,0,0,0-1.984,4.789c.154,3.441,2.989,7.058,6.773,6.773Z" fill="#000000"/>
    <path d="M730.988,607.377q14.238-4.146,28.789-7.086,7.327-1.475,14.714-2.634,1.787-.28,3.576-.543.836-.121,1.671-.24c.519-.073,2.754-.356.827-.119,2.393-.294,4.782-.614,7.179-.883q8.386-.943,16.812-1.478c3.528-.227,6.943-2.953,6.772-6.773-.156-3.475-2.986-7.015-6.772-6.772a359.892,359.892,0,0,0-60.624,9.077q-8.325,1.99-16.545,4.39c-3.4.99-5.868,4.815-4.73,8.331a6.886,6.886,0,0,0,8.331,4.73Z" fill="#000000"/>
    <path d="M768.63,640.625a121.187,121.187,0,0,1,18.329-5.2q2.309-.46,4.635-.83c.775-.123,1.552-.234,2.329-.347.925-.135-1.747.211-.167.026.39-.045.78-.1,1.169-.14,3.2-.368,6.409-.6,9.625-.714,3.537-.126,6.941-3.025,6.773-6.773-.16-3.561-2.98-6.907-6.773-6.772a127.107,127.107,0,0,0-39.521,7.689,7.289,7.289,0,0,0-4.048,3.112,6.917,6.917,0,0,0-.682,5.219c1.05,3.247,4.773,6.046,8.331,4.73Z" fill="#000000"/>
    <path d="M798.433,672.045a108.166,108.166,0,0,1,15.291-3.412c.9-.135.007.021-.388.048.314-.021.63-.08.943-.118q.944-.114,1.889-.211,1.891-.193,3.789-.317c2.688-.175,5.381-.238,8.074-.206a6.773,6.773,0,0,0,0-13.545,110.707,110.707,0,0,0-33.2,4.7c-3.387,1.025-5.876,4.79-4.73,8.331,1.107,3.421,4.7,5.829,8.331,4.73Z" fill="#000000"/>
    <path d="M798.581,725.731a119.11,119.11,0,0,1,12.61-3.474q3.254-.7,6.543-1.226.795-.126,1.589-.241c.227-.033.458-.054.682-.1-.153.03-1.642.209-.434.06,1.063-.13,2.127-.256,3.193-.363a120.109,120.109,0,0,1,26.351.267c.228.027.456.056.684.084,1.552.19-1.117-.166-.207-.029.605.092,1.211.176,1.816.27q1.815.285,3.62.625,3.723.7,7.395,1.644c3.428.873,7.508-1.117,8.331-4.73a6.888,6.888,0,0,0-4.73-8.331,127.94,127.94,0,0,0-56.185-1.458,119.071,119.071,0,0,0-14.859,3.938c-3.353,1.122-5.9,4.719-4.73,8.331,1.08,3.337,4.734,5.934,8.331,4.73Z" fill="#000000"/>
    <path d="M821.769,757.115h25.044c3.542,0,6.936-3.115,6.772-6.772a6.891,6.891,0,0,0-6.772-6.773H821.769c-3.542,0-6.936,3.115-6.772,6.773a6.889,6.889,0,0,0,6.772,6.772Z" fill="#000000"/>
    <path d="M828.03,785.289h21.913c3.543,0,6.936-3.115,6.773-6.772a6.891,6.891,0,0,0-6.773-6.773H828.03c-3.543,0-6.936,3.115-6.773,6.773a6.891,6.891,0,0,0,6.773,6.772Z" fill="#000000"/>
    <path d="M1054.731,641.122a283.2,283.2,0,0,1,28.2,9.17q3.516,1.353,6.994,2.8l.842.352c.7.291-.573-.242-.566-.239.554.251,1.12.477,1.679.718q1.78.769,3.551,1.562,6.77,3.034,13.373,6.421,7.514,3.855,14.786,8.157c3.053,1.8,7.563.794,9.266-2.43a6.9,6.9,0,0,0-2.429-9.266,291.223,291.223,0,0,0-55.925-25.448q-8.012-2.67-16.174-4.855c-3.418-.918-7.515,1.148-8.331,4.73a6.9,6.9,0,0,0,4.73,8.331Z" fill="#000000"/>
    <path d="M1078.24,686.375a75.9,75.9,0,0,1,13.51,3.451c1.044.374,2.074.781,3.105,1.188q1.017.421-.391-.169.408.175.813.355.81.358,1.612.737c2.14,1.01,4.225,2.125,6.262,3.328a6.774,6.774,0,0,0,6.836-11.7,80.941,80.941,0,0,0-28.147-10.255,7.368,7.368,0,0,0-5.218.682,6.9,6.9,0,0,0-3.113,4.048c-.74,3.253.99,7.73,4.731,8.331Z" fill="#000000"/>
    <path d="M1059.6,735.806l40.478,8.824c3.453.753,7.488-1.031,8.331-4.73.778-3.418-1.029-7.524-4.73-8.331l-40.478-8.825c-3.453-.752-7.489,1.032-8.331,4.731-.779,3.418,1.028,7.524,4.73,8.331Z" fill="#000000"/>
    <path d="M1050.29,783.627q10.874-.1,21.724.747,5.36.426,10.694,1.089c.4.05.808.1,1.212.153,1.689.212-1.548-.219.137.017.888.124,1.775.249,2.661.381q2.779.414,5.548.893a7.331,7.331,0,0,0,5.218-.683,6.9,6.9,0,0,0,3.113-4.048c.748-3.285-1-7.689-4.73-8.331a254.944,254.944,0,0,0-45.577-3.763c-3.542.034-6.938,3.091-6.773,6.773a6.885,6.885,0,0,0,6.773,6.772Z" fill="#000000"/>
    <path d="M1051.521,816.665a67.26,67.26,0,0,0,22.247,3.034c3.537-.117,6.94-3.031,6.773-6.772-.16-3.569-2.98-6.9-6.773-6.773a62.529,62.529,0,0,1-10.343-.516l1.8.242a62.6,62.6,0,0,1-10.1-2.276,6.833,6.833,0,0,0-8.331,4.73,6.919,6.919,0,0,0,4.73,8.331Z" fill="#000000"/>
    <path d="M1270.756,911.019a37.031,37.031,0,0,1,7.377,4.418l-1.371-1.059a37.737,37.737,0,0,1,6.64,6.659l-1.059-1.37a37.408,37.408,0,0,1,3.078,4.738,6.838,6.838,0,0,0,9.267,2.43,6.914,6.914,0,0,0,2.429-9.266,42.69,42.69,0,0,0-19.525-18.246,7.355,7.355,0,0,0-5.218-.682,6.775,6.775,0,0,0-4.731,8.331,6.584,6.584,0,0,0,3.113,4.047Z" fill="#000000"/>
    <path d="M1278.593,870.341q4.817,2.976,9.393,6.318c.761.558,1.512,1.129,2.267,1.7q.6.461-.508-.395.343.267.686.537.514.4,1.024.812,2.21,1.769,4.347,3.626a142.985,142.985,0,0,1,15.841,16.152c2.282,2.727,7.252,2.533,9.577,0,2.663-2.9,2.435-6.669,0-9.578a148.524,148.524,0,0,0-35.791-30.864,6.841,6.841,0,0,0-9.266,2.43,6.911,6.911,0,0,0,2.43,9.266Z" fill="#000000"/>
    <path d="M1304.969,845.753a88.022,88.022,0,0,1,14.208,8.552c.228.169.454.341.682.51,1.172.873-.863-.688-.189-.15.554.443,1.112.881,1.66,1.332q1.563,1.286,3.064,2.642,3.162,2.856,6.029,6.011a6.822,6.822,0,0,0,9.578,0,6.923,6.923,0,0,0,0-9.578,93.065,93.065,0,0,0-28.2-21.014,7.259,7.259,0,0,0-5.219-.683,6.9,6.9,0,0,0-4.047,3.112c-1.6,3.029-.979,7.627,2.43,9.266Z" fill="#000000"/>
    <path d="M1303.622,812.465l17.2,12.541a6.819,6.819,0,0,0,5.219.683,6.907,6.907,0,0,0,4.047-3.112,6.834,6.834,0,0,0,.683-5.219,7.785,7.785,0,0,0-3.113-4.047l-17.2-12.541a6.819,6.819,0,0,0-5.219-.683,6.776,6.776,0,0,0-4.73,8.331,7.785,7.785,0,0,0,3.113,4.047Z" fill="#000000"/>
    <path d="M1162.946,1401.519c.705.784,1.393,1.584,2.054,2.407.165.205.324.416.491.62-1.189-1.447-.48-.616-.222-.268q.471.636.922,1.286a54.465,54.465,0,0,1,3.394,5.571q.741,1.4,1.4,2.838c.109.24.215.481.324.722.378.838-.1-.306-.217-.527a13.854,13.854,0,0,1,.585,1.471,55.084,55.084,0,0,1,1.994,6.418,6.839,6.839,0,0,0,8.331,4.73,6.91,6.91,0,0,0,4.73-8.331,62.018,62.018,0,0,0-14.21-26.515,6.818,6.818,0,0,0-9.577,0,6.928,6.928,0,0,0,0,9.578Z" fill="#000000"/>
    <path d="M1175.929,1358.882q1.113,1.353,2.2,2.728l.54.689q.666.856-.255-.331c.377.2.8,1.049,1.058,1.4q2.1,2.8,4.078,5.7,3.891,5.7,7.287,11.712t6.261,12.291q.728,1.593,1.42,3.2.174.4.345.805-.6-1.418-.175-.406c.22.541.444,1.08.662,1.622q1.307,3.252,2.469,6.559c1.177,3.332,4.68,5.912,8.331,4.73,3.29-1.065,5.994-4.755,4.73-8.331A168.338,168.338,0,0,0,1194,1360.427c-2.683-3.815-5.529-7.521-8.491-11.123a6.8,6.8,0,0,0-4.789-1.984,6.893,6.893,0,0,0-4.789,1.984c-2.68,2.92-2.41,6.647,0,9.578Z" fill="#000000"/>
    <path d="M1205.887,1339.578a38.989,38.989,0,0,1,5.6,5.356q.315.369.62.746c.343.422.594,1.148-.22-.3.308.549.775,1.053,1.132,1.576q1.093,1.605,2.027,3.312.466.851.891,1.725c.254.523,1.036,2.515.273.507.438,1.152.889,2.289,1.253,3.468a38.333,38.333,0,0,1,.96,3.759c.129.635.23,1.272.336,1.911.142.85-.175-1.659-.065-.453.036.387.079.773.113,1.16.3,3.52,2.9,6.946,6.772,6.772,3.409-.152,7.1-2.992,6.773-6.772-1.074-12.474-6.939-24.542-16.89-32.344a7.387,7.387,0,0,0-4.789-1.983,6.894,6.894,0,0,0-4.789,1.983c-2.236,2.436-2.978,7.244,0,9.578Z" fill="#000000"/>
    <path d="M1241.73,1322.732c.672.683,1.3,1.4,1.914,2.131.868,1.021-.948-1.338-.185-.237.272.393.554.778.816,1.177a30.7,30.7,0,0,1,2.531,4.731l-.683-1.618a31.135,31.135,0,0,1,2.094,7.574l-.242-1.8a30.259,30.259,0,0,1,.213,5.716,6.813,6.813,0,0,0,6.772,6.772,6.927,6.927,0,0,0,6.773-6.772,36.493,36.493,0,0,0-10.425-27.252,6.773,6.773,0,0,0-9.578,9.578Z" fill="#000000"/>
    <path d="M1222.873,1548.894q.435,1.017-.148-.352.174.425.344.85.3.744.578,1.495.6,1.61,1.139,3.242,1,3.05,1.749,6.17t1.25,6.291q.072.452.138.906.159,1.125-.055-.439c.173.152.131,1.082.163,1.365.134,1.215.237,2.432.319,3.651.238,3.528,2.946,6.944,6.773,6.773,3.466-.156,7.027-2.987,6.772-6.773a90.9,90.9,0,0,0-7.326-30.016,6.766,6.766,0,0,0-4.048-3.112,6.918,6.918,0,0,0-5.219.683,6.832,6.832,0,0,0-3.112,4.047,7.938,7.938,0,0,0,.683,5.219Z" fill="#000000"/>
    <path d="M1247.073,1520.387c.479,1.042.939,2.092,1.4,3.143q.3.7-.236-.562.176.423.35.848.347.849.681,1.7,1.171,2.988,2.188,6.035a126.451,126.451,0,0,1,3.492,12.59q.722,3.246,1.273,6.527c.177,1.055.334,2.114.492,3.172.222,1.491-.164-1.365,0,.018.073.607.15,1.214.219,1.821a127.381,127.381,0,0,1,.782,13.271c.026,3.542,3.1,6.937,6.772,6.772a6.886,6.886,0,0,0,6.773-6.772,135.143,135.143,0,0,0-12.49-55.4,6.806,6.806,0,0,0-4.047-3.112,6.918,6.918,0,0,0-5.219.683c-3.331,2.147-4.016,5.811-2.43,9.266Z" fill="#000000"/>
    <path d="M1280.884,1515.972q1.161,2.19,2.213,4.433c.381.816.746,1.64,1.107,2.465.5,1.151-.385-.956-.07-.165.139.349.284.7.423,1.044a94.59,94.59,0,0,1,5.39,19.268c.137.81.211,1.644.38,2.448l-.121-.908c.04.3.077.6.114.894q.068.558.129,1.118c.188,1.717.325,3.438.421,5.163.2,3.531,2.974,6.942,6.773,6.772,3.5-.157,6.985-2.984,6.772-6.772a103.144,103.144,0,0,0-11.835-42.6,6.829,6.829,0,0,0-9.266-2.43,6.923,6.923,0,0,0-2.43,9.266Z" fill="#000000"/>
    <path d="M1306.963,1509.654l2.815,12.592a6.774,6.774,0,0,0,12.379,1.617,7.336,7.336,0,0,0,.682-5.218l-2.815-12.592a6.774,6.774,0,0,0-12.379-1.618,7.339,7.339,0,0,0-.682,5.219Z" fill="#000000"/>
    <path d="M1552.184,688.968q-.675,1.9-1.408,3.784c-.273.7-.555,1.388-.839,2.08-.358.874.151-.086.16-.378a3.639,3.639,0,0,1-.446,1.029q-1.671,3.8-3.61,7.471a117.379,117.379,0,0,1-8.773,14.073,6.825,6.825,0,0,0-.683,5.218,6.914,6.914,0,0,0,3.113,4.048c3.512,1.855,7.039.642,9.266-2.43a123.413,123.413,0,0,0,16.281-31.294c1.185-3.344-1.34-7.559-4.73-8.331a6.943,6.943,0,0,0-8.331,4.73Z" fill="#000000"/>
    <path d="M1578.057,687.374l-29.105,50.453c-1.771,3.07-.817,7.551,2.429,9.266a6.894,6.894,0,0,0,9.266-2.43l29.106-50.452c1.771-3.071.816-7.551-2.43-9.266a6.892,6.892,0,0,0-9.266,2.429Z" fill="#000000"/>
    <path d="M1655.236,480.99l-19.24,45.2a7.441,7.441,0,0,0-.683,5.218,6.911,6.911,0,0,0,3.113,4.048,6.836,6.836,0,0,0,5.218.683c1.555-.5,3.377-1.537,4.048-3.113l19.239-45.2a7.435,7.435,0,0,0,.683-5.218,6.908,6.908,0,0,0-3.112-4.048,6.839,6.839,0,0,0-5.219-.682c-1.554.5-3.376,1.536-4.047,3.112Z" fill="#000000"/>
    <path d="M1671.637,502.556c-5.916,13.935-11.341,28.061-16.15,42.417a6.822,6.822,0,0,0,4.73,8.331,6.932,6.932,0,0,0,8.331-4.73q3.428-10.231,7.245-20.326,1.889-4.989,3.873-9.94.993-2.476,2.009-4.942.508-1.233,1.022-2.463c.186-.446.391-.891.563-1.342l-.306.724.378-.893a7.44,7.44,0,0,0,.683-5.218,6.774,6.774,0,0,0-8.331-4.73c-1.553.5-3.378,1.536-4.047,3.112Z" fill="#000000"/>
    <path d="M1687.356,520.139l-11.376,28a6.788,6.788,0,0,0,.683,5.218,6.771,6.771,0,0,0,9.266,2.43,7.921,7.921,0,0,0,3.112-4.048l11.376-28a6.791,6.791,0,0,0-.683-5.219,6.773,6.773,0,0,0-9.266-2.43,7.921,7.921,0,0,0-3.112,4.048Z" fill="#000000"/>
    <path d="M1737.3,298.969l-25.758,45.869c-1.735,3.09-.842,7.538,2.429,9.266a6.887,6.887,0,0,0,9.266-2.429l25.758-45.869c1.735-3.09.842-7.538-2.429-9.266a6.887,6.887,0,0,0-9.266,2.429Z" fill="#000000"/>
    <path d="M1770.864,296.246a389.256,389.256,0,0,0-28.206,51.606,7.347,7.347,0,0,0-.682,5.219,6.9,6.9,0,0,0,3.112,4.047c2.964,1.566,7.708,1.017,9.266-2.429a389.131,389.131,0,0,1,28.206-51.606,6.826,6.826,0,0,0-2.43-9.266,6.924,6.924,0,0,0-9.266,2.429Z" fill="#000000"/>
    <path d="M1791.1,318.085a196.883,196.883,0,0,0-17.323,31.247,7.384,7.384,0,0,0-.682,5.219,6.9,6.9,0,0,0,3.112,4.047c2.939,1.553,7.74,1.032,9.266-2.429a196.893,196.893,0,0,1,17.323-31.248c2-2.937.654-7.637-2.43-9.266a6.94,6.94,0,0,0-9.266,2.43Z" fill="#000000"/>
    <path d="M1801.87,344.563l-12.524,17.216a6.823,6.823,0,0,0-.683,5.219,6.908,6.908,0,0,0,3.113,4.047,6.836,6.836,0,0,0,5.218.683,7.778,7.778,0,0,0,4.048-3.113l12.524-17.215a6.823,6.823,0,0,0,.683-5.219,6.909,6.909,0,0,0-3.113-4.047,6.832,6.832,0,0,0-5.218-.683,7.776,7.776,0,0,0-4.048,3.112Z" fill="#000000"/>
    <path d="M1859.392,100.664a160.779,160.779,0,0,0-26,39.7c-2,4.387-3.838,8.855-5.474,13.39-1.205,3.337,1.354,7.562,4.73,8.331a6.948,6.948,0,0,0,8.331-4.73q.951-2.636,1.991-5.237c.16-.4.323-.8.486-1.2.109-.265.229-.528.33-.8.012-.03-.563,1.317-.263.625.371-.857.739-1.714,1.121-2.567q2.291-5.112,4.948-10.051a154.479,154.479,0,0,1,12.14-19.069q.45-.6.906-1.2c.131-.172.263-.342.393-.514.539-.711-.823,1.047-.268.348.67-.844,1.334-1.692,2.015-2.527q2.042-2.507,4.189-4.923c2.347-2.652,2.807-7,0-9.578-2.569-2.358-7.07-2.833-9.578,0Z" fill="#000000"/>
    <path d="M1885.3,119.487a341.139,341.139,0,0,0-20.982,37.2c-1.541,3.183-.976,7.467,2.43,9.266,3.035,1.6,7.618.975,9.266-2.43a341.052,341.052,0,0,1,20.982-37.2,6.826,6.826,0,0,0-2.43-9.266,6.924,6.924,0,0,0-9.266,2.429Z" fill="#000000"/>
    <path d="M1903.415,139.446,1881.289,181.6c-1.646,3.134-.9,7.5,2.429,9.266,3.124,1.65,7.508.92,9.267-2.43l22.126-42.149c1.646-3.134.9-7.5-2.43-9.266-3.123-1.65-7.507-.919-9.266,2.43Z" fill="#000000"/>
    <path d="M1929.075,147.347a239.318,239.318,0,0,1-7.91,25.13q-1.161,3.084-2.409,6.134c-.2.491-.4.98-.606,1.47-.142.343-.52,1.178.154-.36-.091.208-.177.418-.266.627q-.669,1.567-1.36,3.125-2.673,6.024-5.677,11.893-3.416,6.677-7.25,13.126a6.774,6.774,0,0,0,11.7,6.837,247.147,247.147,0,0,0,22.461-49.758q2.349-7.242,4.229-14.623c.876-3.428-1.119-7.509-4.731-8.331a6.889,6.889,0,0,0-8.331,4.73Z" fill="#000000"/>
    <path d="M666.742,1348.168l34.472-31.263a6.819,6.819,0,0,0,0-9.577,6.925,6.925,0,0,0-9.578,0l-34.472,31.262a6.82,6.82,0,0,0,0,9.578,6.925,6.925,0,0,0,9.578,0Z" style="         fill: #ffa400;       "/>
    <path d="M746.8,1288.818l28.22-9.248c3.361-1.1,5.895-4.735,4.731-8.331-1.086-3.355-4.726-5.912-8.331-4.73l-28.221,9.248c-3.361,1.1-5.894,4.734-4.73,8.331,1.085,3.355,4.726,5.912,8.331,4.73Z" style="         fill: #ffa400;       "/>
    <path d="M832.566,1265.036l26.522,3.745a7.456,7.456,0,0,0,5.218-.683,6.771,6.771,0,0,0,2.43-9.266c-.885-1.372-2.352-2.873-4.048-3.112l-26.522-3.745a7.456,7.456,0,0,0-5.218.683,6.773,6.773,0,0,0-2.43,9.266c.885,1.372,2.352,2.873,4.048,3.112Z" style="         fill: #ffa400;       "/>
    <path d="M779.871,1255.648q1.636-.8,3.3-1.534c.277-.121.562-.232.836-.361-1.579.745-.521.224-.147.072q.844-.341,1.7-.664,3.51-1.334,7.129-2.358,3.5-.992,7.084-1.685,1.9-.367,3.814-.65c.212-.031,1.279-.18.227-.036s.015,0,.228-.024c.678-.081,1.357-.153,2.037-.22a7.3,7.3,0,0,0,4.789-1.984,6.882,6.882,0,0,0,1.984-4.789c-.151-3.371-3-7.144-6.773-6.772a96.427,96.427,0,0,0-33.043,9.309c-3.193,1.556-4.309,6.352-2.43,9.266a6.946,6.946,0,0,0,9.266,2.43Z" style="         fill: #ffa400;       "/>
    <path d="M936.03,1267.35c2.533,0,5.022.378,7.54.453-.33-.01-1.406-.206-.479-.064.293.045.587.088.879.136q.988.159,1.97.352,1.854.361,3.684.84a60.469,60.469,0,0,1,6.969,2.279c.344.135.684.292,1.03.418-.332-.121-1.205-.527-.392-.156.539.246,1.08.488,1.615.745,1.2.577,2.383,1.2,3.547,1.85,3.091,1.733,7.537.844,9.266-2.43a6.887,6.887,0,0,0-2.43-9.266,68.1,68.1,0,0,0-33.2-8.7c-3.543,0-6.936,3.115-6.773,6.772a6.892,6.892,0,0,0,6.773,6.773Z" style="         fill: #ffa400;       "/>
    <path d="M890.38,1246.9l31.276,6.4c3.461.708,7.482-1,8.331-4.73.77-3.38-1.018-7.572-4.73-8.331l-31.276-6.4c-3.461-.709-7.482,1-8.331,4.73-.77,3.379,1.019,7.571,4.73,8.331Z" style="         fill: #ffa400;       "/>
    <path d="M998.647,1253.388a99.348,99.348,0,0,1,12.644-.175q3.16.16,6.3.522.45.051.9.107.9.115,0,0t0,0q.447.063.894.131,1.565.239,3.12.526a99.174,99.174,0,0,1,12.266,3.083q3.012.966,5.959,2.123c.421.165.838.338,1.258.505,1.284.509-1.352-.591.257.107q1.556.673,3.086,1.4a7.276,7.276,0,0,0,5.218.682,6.905,6.905,0,0,0,4.048-3.112c1.591-3.011.989-7.649-2.43-9.266a106.492,106.492,0,0,0-53.515-10.179c-3.524.271-6.945,2.921-6.773,6.773.154,3.437,2.99,7.063,6.773,6.772Z" style="         fill: #ffa400;       "/>
    <path d="M1032.845,1290.6l14.209,5.97c1.5.63,3.887.1,5.219-.683a6.772,6.772,0,0,0,2.429-9.266l-1.059-1.371a6.772,6.772,0,0,0-2.988-1.742l-14.209-5.969c-1.5-.63-3.887-.1-5.219.683a6.773,6.773,0,0,0-2.43,9.266l1.059,1.371a6.768,6.768,0,0,0,2.989,1.741Z" style="         fill: #ffa400;       "/>
    <path d="M628.962,1387.116a179.654,179.654,0,0,0-24.057,33.014c-1.743,3.086-.836,7.541,2.43,9.267a6.89,6.89,0,0,0,9.266-2.43,171.841,171.841,0,0,1,10.453-16.3c.925-1.277,1.873-2.537,2.829-3.792.51-.668-.863,1.1-.092.124.279-.353.557-.708.837-1.061q.7-.88,1.415-1.753,3.139-3.838,6.5-7.487c2.4-2.61,2.775-7.031,0-9.578-2.608-2.394-7.019-2.788-9.577,0Z" style="         fill: #ffa400;       "/>
    <path d="M593.917,1452.672l-7.181,20.573c-1.169,3.349,1.329,7.556,4.73,8.331a6.94,6.94,0,0,0,8.331-4.73l7.182-20.573c1.168-3.349-1.329-7.556-4.731-8.331a6.941,6.941,0,0,0-8.331,4.73Z" style="         fill: #ffa400;       "/>
    <path d="M1086.034,1317.308c1.549.4,3.082.854,4.595,1.377q1.038.359,2.064.757c.373.144.742.3,1.114.445.782.312-1.424-.634-.331-.135a65.09,65.09,0,0,1,8.27,4.442c1.291.83,2.49,1.793,3.769,2.633l-.736-.572q.315.246.627.5.468.373.929.759.844.7,1.662,1.439a59.314,59.314,0,0,1,6.456,6.813,6.787,6.787,0,0,0,4.789,1.983,6.9,6.9,0,0,0,4.789-1.983,6.815,6.815,0,0,0,1.984-4.789,7.775,7.775,0,0,0-1.984-4.789,65.892,65.892,0,0,0-34.4-21.937c-3.425-.885-7.51,1.125-8.331,4.73a6.891,6.891,0,0,0,4.731,8.331Z" style="         fill: #ffa400;       "/>
    <path d="M911.155,1224.543c.736-.147,1.474-.286,2.215-.409.432-.072.911-.1,1.336-.208-.644.16-1.283.16-.237.035q2.347-.281,4.713-.39a65.508,65.508,0,0,1,9.228.228q.56.054,1.12.117c.26.029,1.546.29.441.046s.187.031.439.07q.557.087,1.111.182,2.331.4,4.63.972a65.5,65.5,0,0,1,8.983,2.944,6.787,6.787,0,0,0,5.219-.682,6.772,6.772,0,0,0,2.429-9.266,7.935,7.935,0,0,0-4.047-3.113,72.041,72.041,0,0,0-41.181-3.587c-3.481.695-5.8,5.024-4.73,8.331a6.942,6.942,0,0,0,8.331,4.73Z" style="         fill: #ffa400;       "/>
    <path d="M808.029,1200.234c2.458-.675,4.936-1.269,7.436-1.763q1.875-.37,3.763-.671c.622-.1,1.276-.141,1.89-.282-.389.089-1.286.161-.38.053.395-.047.79-.1,1.186-.141a103.292,103.292,0,0,1,15.5-.575,6.825,6.825,0,0,0,6.772-6.772,6.913,6.913,0,0,0-6.772-6.773,109.677,109.677,0,0,0-33,3.863c-3.415.939-5.857,4.852-4.731,8.331a6.894,6.894,0,0,0,8.331,4.73Z" style="         fill: #ffa400;       "/>
    <path d="M696.779,1256.083l-6.43,7.685a6.965,6.965,0,0,0,0,9.577,6.813,6.813,0,0,0,4.789,1.984l1.8-.242a6.761,6.761,0,0,0,2.989-1.742l6.43-7.684a6.963,6.963,0,0,0,0-9.578,6.815,6.815,0,0,0-4.789-1.983l-1.8.242a6.779,6.779,0,0,0-2.989,1.741Z" style="         fill: #ffa400;       "/>
  </g>
</g></g></g></svg>